<?xml version="1.0" encoding="utf-8"?>
<!-- Generator: Adobe Illustrator 23.1.1, SVG Export Plug-In . SVG Version: 6.00 Build 0)  -->
<svg version="1.1" id="Layer_1" xmlns="http://www.w3.org/2000/svg" xmlns:xlink="http://www.w3.org/1999/xlink" x="0px" y="0px"
	 viewBox="0 0 958 2160" style="enable-background:new 0 0 958 2160;" xml:space="preserve">
<style type="text/css">
	.st0{fill:url(#SVGID_1_);}
	.st1{fill:url(#SVGID_2_);}
	.st2{fill:#EFEAE6;}
	.st3{fill:#6BBFCC;}
	.st4{fill:#A0CDD4;}
	.st5{fill:#2A3C42;}
	.st6{fill:#161B17;}
	.st7{fill:#9ECCD3;}
	.st8{fill:#246A9C;}
	.st9{fill:#31709C;}
	.st10{fill:#36322C;}
	.st11{fill:#B08866;}
	.st12{fill:#A88261;}
	.st13{fill:#1E5F8C;}
	.st14{fill:#89B1D3;}
	.st15{fill:#A7C6E0;}
	.st16{fill:#E0AD80;}
	.st17{fill:#C69972;}
	.st18{fill:#80A2C1;}
	.st19{fill:#FAEECC;}
	.st20{fill:url(#SVGID_3_);}
	.st21{fill:url(#SVGID_4_);}
	.st22{fill:#7BABD3;}
	.st23{fill:url(#SVGID_5_);}
	.st24{fill:#99C1E3;}
	.st25{fill:#AAD7FF;}
	.st26{fill:url(#SVGID_6_);}
	.st27{fill:#6B95B8;}
	.st28{fill:#98B4CC;}
	.st29{fill:#FFFFFF;}
	.st30{fill:#EAEAEA;}
	.st31{fill:url(#SVGID_7_);}
	.st32{fill:#205E8A;}
	.st33{fill:#65969E;}
	.st34{fill:#80A5AB;}
	.st35{fill:url(#SVGID_8_);}
	.st36{fill:url(#SVGID_9_);}
	.st37{fill:#0F2A40;}
	.st38{fill:url(#SVGID_10_);}
	.st39{fill:url(#SVGID_11_);}
	.st40{fill:url(#SVGID_12_);}
	.st41{fill:url(#SVGID_13_);}
	.st42{fill:url(#SVGID_14_);}
	.st43{fill:url(#SVGID_15_);}
	.st44{fill:url(#SVGID_16_);}
	.st45{fill:url(#SVGID_17_);}
	.st46{fill:url(#SVGID_18_);}
	.st47{fill:url(#SVGID_19_);}
	.st48{fill:url(#SVGID_20_);}
</style>
<linearGradient id="SVGID_1_" gradientUnits="userSpaceOnUse" x1="478" y1="844" x2="478" y2="1924" gradientTransform="matrix(1 0 0 1 0 236)">
	<stop  offset="0" style="stop-color:#BCECFF"/>
	<stop  offset="1" style="stop-color:#FBF3EB"/>
</linearGradient>
<rect x="-2" y="1080" class="st0" width="960" height="1080"/>
<linearGradient id="SVGID_2_" gradientUnits="userSpaceOnUse" x1="478" y1="-236" x2="478" y2="844" gradientTransform="matrix(1 0 0 1 0 236)">
	<stop  offset="0" style="stop-color:#246A9C"/>
	<stop  offset="1" style="stop-color:#BDECFF"/>
</linearGradient>
<rect x="-2" y="0" class="st1" width="960" height="1080"/>
<g>
	
		<ellipse transform="matrix(0.7071 -0.7071 0.7071 0.7071 -805.0798 927.9156)" class="st2" cx="717.6" cy="1435.8" rx="98.8" ry="98.8"/>
	<path class="st3" d="M660.9,1405.3l16.8-24.5l25.2-9.8l52.1,74.9c0,0-21.6,40.2-38.5,27.5C699.6,1460.7,660.9,1405.3,660.9,1405.3z
		"/>
	<path class="st4" d="M664.9,1393.9c0,0-17.6,14.6-13.2,32.8s11.9,53.3,31.1,80.1c0,0,5.7,9.6,6.8,10.4s11.2-2.1,13-4.7
		s-7.3-44.2-8.4-46.5c-1.1-2.4,20.4,21.1,27.9,21.3s11.2-9.2,11.6-12.2s-35.7-61.5-36.9-62.9s-21.5-23.4-18.8-26.5s13.2-28,27.8,5.5
		s31.4,74.9,34.6,76.5c3.2,1.7,12.9,0.2,26.6-13.4c0,0-14.2-36.4-14.8-37.9s33.7,33.4,37.1,36.3c3.4,2.9,5.3,7.4,12.4-3
		c0,0,4.6-6.7,3.6-10c-1-3.4-24.3-38.4-55.8-65.5c0,0-13.3-12.4-20.6-12c-7.4,0.4-17.6,1-27.2,8c0,0-7.1-1.6-8.7,0
		c-1.6,1.6-18.6,12.8-18.6,12.8L664.9,1393.9z"/>
	<path class="st5" d="M654.6,1414.6c0,0,18.4,24,19.8,25c1.5,1,2.5,1.2,2.4,0.5C676.7,1439.5,668.2,1428.8,654.6,1414.6z"/>
	<path class="st5" d="M677.9,1440.9c0,0-2.4-0.5-0.3,2s3.9,5.4,5.9,7.3s5.5,7,6.5,8.8s3.4,4.5,4.2,5c0.7,0.5,1.2-2.5-7.6-12.8
		C677.9,1440.9,680.1,1444.1,677.9,1440.9z"/>
	<path class="st6" d="M670.7,1383c0,0,19.3-12.2,22.7-14.7s4.3,2.4,2.1,4.1s-2.3,3.3-2.3,3.3s-17.3,11-16.6,11.5
		S670.7,1383,670.7,1383z"/>
	<path class="st5" d="M678.2,1385.6c-5.3-6-11-3.8-11.7,8.3c-0.7,12.1,4.5,24.3,5.9,24.7s6.5-15.1,6.7-16.1c0,0,16.9,9.8,18.7,11.7
		S681.9,1389.8,678.2,1385.6z"/>
	<path class="st5" d="M690.5,1370.1c0,0,4.6-9.9,19,0s15.6,16.1,15.6,16.1s-13.5,0.6-16.6,2.8c0,0,5.8,17,2.7,19.8
		C711.3,1408.9,689.7,1376.1,690.5,1370.1z"/>
	<path class="st5" d="M729.8,1365.1c0,0,10.6,22.6,10.8,24s-0.1,2.3-0.5,1.9C739.7,1390.7,735.1,1380.5,729.8,1365.1z"/>
	<path class="st5" d="M738.7,1388.3c0,0,0.6-2.3,1.8,0.6s2.9,5.8,3.6,8.3s3.6,7.8,4.7,9.5c1.1,1.6,2.4,4.9,2.5,5.8
		s-2.6-0.1-7.6-12.1S740.4,1391.5,738.7,1388.3z"/>
</g>
<g>
	<g>
		<circle class="st7" cx="751.6" cy="1139.9" r="107.6"/>
		<path class="st8" d="M748.7,1225.3c10.2-2.6,19.8-26.8,21.8-28.3c9-6.3,9.4-12.1,12.4-13.8c14.9-7,30.4-35.9,36.6-45.4
			c9.5-14.3,14.9-8.7,17.2-10.7c5-6,10.6-14.1-4.5-19.1c-28.2-9.3-23.1-15.7-57.9-27.8c-0.5-0.1-45.3-23.1-46.1-20.3
			c-4.1,1-12.6,30.9-16.5,40.4c-11.8,25.9-19,45.7-24.1,62.6c-5,4.9-7,9.3-6.7,17.2c-3.7,11.2,14.2,14.1,24.9,21.6
			C725.2,1211.2,738.7,1226.5,748.7,1225.3z"/>
		<path class="st9" d="M766.9,1175.3c-0.4,0.8-1.3,1.3-2.1,0.8c-8.8-5.5-48.2-30.1-52.5-30.4c-4.9-0.3,19-26.4,28.9-36.9
			c0,0,22.1,6.1,24.4,7.6c0,0,16.7,14.7,17.7,18.2C783.2,1134.5,771,1167,766.9,1175.3z"/>
		<path class="st10" d="M754.9,1212.7c0,0-57.5-35.8-66.9-42.6c0,0,33.1,19.7,36,21.7C726.9,1193.8,753.5,1210.9,754.9,1212.7z"/>
		<path class="st10" d="M746.1,1224.6c0,0-6.9-0.4-13.5-5.6s-13.5-11-26.1-16.6l-20.1-11.4c0,0-6.2-2.9-6.7-6.4c0,0,0,1.7,2.8,3.5
			s16.9,9.7,16.9,9.7s16.8,8,20.3,10.8s14.8,11.4,16.9,12.4C738.9,1222.2,740.7,1223.1,746.1,1224.6z"/>
		<path class="st11" d="M686.5,1191.2c0,0,28.1,18.3,30.9,14.8s7.9-13,9.8-14.8c0,0-5.8-4.9-6.5-6.9s-13.5-7-18.1-9.8
			s-6.8-2.7-7.7-1s-8.8,15.2-10.2,16.2L686.5,1191.2z"/>
		<path class="st10" d="M765.6,1176.6c0,0-42.9-28.5-54.4-31.6C761.7,1173.2,761.6,1173.2,765.6,1176.6z"/>
		<path class="st10" d="M768.6,1170.4c0,0-48-31.1-52.9-31.7c0,0,5.7,1.7,25.4,13.6S768.6,1170.4,768.6,1170.4z"/>
		<path class="st12" d="M685,1189.9c0,0,7.3-8.4,11.2-13.1s31.1,14.3,31.1,14.3s-6.7-5.4-6.5-6.9s-21-11.5-22.5-11.8s-2-1.9-5.6,5.2
			C692.6,1177.6,685.7,1189.2,685,1189.9z"/>
	</g>
	<path class="st13" d="M711.2,1144.7c0,0,29.4-34.5,37-34c0,0-5.2-2.2-7.4-2.2S712.6,1141,711.2,1144.7z"/>
	<path class="st13" d="M736.9,1062.4c0,0-15.3,26.1-24.2,46c-8.9,20-25.1,57-25.1,57l-7.4,19.2c0,0-0.7-14.5,5.6-19.8
		c0,0,3.4-5.8,3.4-7.1c0,0,16.1-45.8,20.6-53.1c4.5-7.3,11.8-33,12.6-34.2s3.2-11.9,7.5-10.6
		C734.2,1061.1,736.9,1062.4,736.9,1062.4z"/>
	<path class="st13" d="M687.9,1170.1c0,0,41.6-104,54.3-105.4c0,0-5.7-3-7.2-2.9s-31.9,64.4-31.9,64.4l-20,47.3l-3,11.1
		C680.1,1184.7,685.2,1171.1,687.9,1170.1z"/>
</g>
<g>
	<g>
		<circle class="st2" cx="785.5" cy="2024" r="64.5"/>
		<path class="st14" d="M753,1984.4c-3.6,5.2,1.7,19.9,1.4,21.4c-1.6,6.4,0.5,9.2-0.1,11.1c-3.9,9.1,0.6,28.2,1.6,34.9
			c1.4,10.2-3.3,9.8-3.5,11.6c0.2,4.7,0.8,10.6,9.6,6.8c16.4-7,16.6-2.1,37.1-10.5c0.3-0.1,29.5-7.6,28.8-9.1
			c1.4-2-6.6-18.9-8.6-24.7c-4.9-16.3-9.6-28.1-14-37.7c0.3-4.2-0.6-7-3.8-10.4c-2.8-6.5-12-0.7-19.7,0.2
			C769.2,1981.5,757,1979.9,753,1984.4z"/>
		<path class="st15" d="M764.7,2014.1c-0.1-0.5,0.1-1.1,0.6-1.2c6.1-1,33.6-5.6,35.7-7.2c2.3-1.8,1.9,19.4,1.7,28c0,0-12.4,6-14,6.3
			c0,0-13.3,0-15.2-1.1C773.5,2039,766.1,2019.4,764.7,2014.1z"/>
		<path class="st10" d="M755.3,1992.5c0,0,40-6.7,47-7.4c0,0-22.7,4.3-24.8,4.5C775.3,1989.9,756.6,1992.7,755.3,1992.5z"/>
		<path class="st10" d="M754.4,1983.7c0,0,3.3-2.5,8.3-2.9c5-0.3,10.4-0.4,18.3-2.9l13.5-2.9c0,0,3.9-1.1,5.6,0.2
			c0,0-0.7-0.8-2.6-0.5c-1.9,0.3-11.5,2.4-11.5,2.4s-10.7,3-13.4,3.2s-11.1,0.7-12.5,1.1C758.7,1981.9,757.4,1982.2,754.4,1983.7z"
			/>
		<path class="st16" d="M794.5,1975.1c0,0-19.9,2.9-19.7,5.6s1.6,9,1.5,10.6c0,0,4.6-0.1,5.6,0.5s8.8-2.2,12-2.8s4.2-1.5,3.8-2.6
			s-2.1-10.3-1.9-11.3L794.5,1975.1L794.5,1975.1z"/>
		<path class="st10" d="M764.7,2013c0,0,30.6-4.2,37-7.4C767.8,2013,767.8,2013,764.7,2013z"/>
		<path class="st10" d="M765.8,2017c0,0,33.9-5.1,36.4-6.7c0,0-3.2,1.5-16.8,3.9S765.8,2017,765.8,2017z"/>
		<path class="st17" d="M795.7,1975c0,0,0.1,6.7,0.2,10.3s-19.7,5.9-19.7,5.9s5.1-0.2,5.6,0.5c0.5,0.8,14-3.1,14.8-3.6
			s1.7,0.1,0.5-4.6C797.1,1983.6,795.6,1975.7,795.7,1975z"/>
	</g>
	<path class="st18" d="M801.8,2005.8c0,0,0.5,27.1-3.1,30c0,0,3.2-1.1,4.2-1.9S802.6,2008,801.8,2005.8z"/>
	<path class="st18" d="M822.9,2052.9c0,0-3.5-17.8-7.4-30.3s-11.3-35.6-11.3-35.6l-4.3-11.6c0,0,6.1,6.2,5.4,11.1c0,0,0.8,4,1.3,4.5
		c0,0,10.9,27,11.8,32.1s7.8,19.5,7.9,20.4s3.3,6.6,0.8,7.7C824.7,2052.4,822.9,2052.9,822.9,2052.9z"/>
	<path class="st18" d="M802.2,1985.1c0,0,22.5,63.2,17.4,68.9c0,0,3.7-0.9,4.4-1.5s-11.2-41.6-11.2-41.6l-9.8-29.2l-3.1-6.2
		C799.9,1975.5,803,1983.6,802.2,1985.1z"/>
</g>
<g>
	<ellipse class="st19" cx="150.4" cy="1934.7" rx="61.1" ry="64"/>
	<g>
		<path class="st5" d="M187.5,1969.9c0,0-20.1,17.2-20.8,17.9c-0.7,0.7-17-15.1-19.3-18.7s-15-25.8-17.3-27.4s-13.6-25.5-14.1-26.6
			c-0.1-0.2-1.6-3.6-1.6-3.6s9.8-7.8,10.9-6.7s3.2,5.4,4.7,6.7c1.5,1.3,3.6,6,5.4,8.5s20,28.4,21,28.3c0,0-8.1-22.7-8.8-27.1
			s-5.9-19.8-6.6-21.5c-0.7-1.7-0.5-4.1-0.8-5.4c-0.2-1.2,3.4-4.7,3.4-4.7s7.6-4.7,9.1-2.1c0,0,12,27,12.9,29.2s4.5,8.6,4.2,9.5
			c-0.3,0.8,8,17.4,9.1,19.9s5.6,14.8,6.2,16.9C185.8,1965.1,187,1969.3,187.5,1969.9z"/>
		<path class="st7" d="M113.4,1910.6c-0.1-1.3,1.5-5.4,9.8-8.5c0,0,2.1-0.3,3.3,2.4c0,0,0.7,1.7,0.9,1.9c0.2,0.2-0.5,0.3-0.5,0.3
			s-9.5,4-10.8,6.9c0,0-0.3,1.5-0.4,1.2C115.5,1914.6,113.5,1911.6,113.4,1910.6z"/>
		<path class="st7" d="M138.5,1891.2c0-1.4,2.2-5.5,11.3-7.6c0,0,2.3-0.1,3.2,3c0,0,0.6,1.9,0.7,2.2c0.1,0.3-0.6,0.2-0.6,0.2
			s-10.5,2.9-12.2,5.8c0,0-0.5,1.5-0.6,1.2C140.3,1895.7,138.5,1892.2,138.5,1891.2z"/>
		<path class="st7" d="M186.2,1967.8c0,0-7,5.4-9.9,7.5s-10.1,9.3-10.5,9.8c0,0-1-0.2-0.6-0.7s10.1-10,12.1-10.6s7.6-6.1,8.2-6.3
			C186,1967.2,186.2,1967.8,186.2,1967.8z"/>
		<path class="st7" d="M179.4,1977.2c0,0-1.5-4-2.2-4.3c-0.8-0.3,0,0,0.7,2.4c0,0,0.4,1.8,0.5,2.1c0.1,0.3,0.7,0,0.7,0L179.4,1977.2
			z"/>
		<path class="st7" d="M171.4,1983.1c0,0,0,0.7-0.4,0.5c-0.4-0.1-2.3-2.9-2.5-3.5s0.4-1.2,0.7-0.7
			C169.4,1980,170.9,1982.7,171.4,1983.1z"/>
		<path class="st7" d="M171.1,1979.9c0,0-10.1-15-10.1-15.7s1.9-2.3,2.9-1.4s9.5,14.5,9.5,14.5l-0.7,0.4c0,0-8.2-12.6-8.8-13.3
			c-0.6-0.7-1.4-1-1.6,0.1s8.6,14.4,9,14.5C171.9,1979.2,171.1,1979.9,171.1,1979.9z"/>
		<path class="st7" d="M162.8,1963c0,0-4.6-8.9-4.8-10.2c0,0-0.5-0.4-0.5,0.3c0,0.7,4.1,9.2,4.6,10.3
			C162.5,1964.5,162.8,1963,162.8,1963z"/>
		<path class="st7" d="M154.2,1961.1c0,0,6.2-9.4,7.1-10.2c0.9-0.8,0.6-1.6,0.2-1.1s-7.9,9.9-7.8,10.9
			C153.8,1961.6,154.2,1961.1,154.2,1961.1z"/>
		<path class="st7" d="M158,1954.5c0,0-6.6,1.9-6.7,2.3c-0.1,0.4-0.8-0.3,0-0.7s6.7-2.8,6.9-2.1C158.4,1954.6,158,1954.5,158,1954.5
			z"/>
		<path class="st7" d="M157.7,1953.6c0,0-5-4.7-5.4-4.8s-0.8-1,0.4-0.5c1.2,0.4,5,4.7,5.1,5C157.9,1953.6,157.7,1953.6,157.7,1953.6
			z"/>
		<path class="st7" d="M179.9,1972.5c0,0-5.4-8.5,2.9-13.9c0,0,0.9-0.1,0,0.7c-0.9,0.8-6.3,3.4-2.7,12.8L179.9,1972.5z"/>
		<path class="st7" d="M167.9,1982.5c0,0-7.7-7.1-10.6-3.6c0,0-0.6,0.1-1-0.3s4-4.5,12,3.4L167.9,1982.5z"/>
	</g>
</g>
<g>
	
		<linearGradient id="SVGID_3_" gradientUnits="userSpaceOnUse" x1="190.3456" y1="898.1811" x2="581.8544" y2="1124.2189" gradientTransform="matrix(1 0 0 1 0 236)">
		<stop  offset="0" style="stop-color:#FBF3EB"/>
		<stop  offset="1" style="stop-color:#BCECFF"/>
	</linearGradient>
	<circle class="st20" cx="386.1" cy="1247.2" r="226"/>
	<g>
		<path class="st5" d="M290.3,1088.9c0,0,88.7-36.9,91.8-38.4s45,69,49.3,83.6c4.3,14.7,27,103.3,33.6,111.1
			c6.6,7.8,22.2,100.7,22.9,105c0.1,0.7,2,13.9,2,13.9s-42.5,16-45.4,11s-5.9-21.6-10-27.5c-4.1-6-6.8-24.2-10.5-34.6
			s-42.2-117.5-45.5-118.1c0,0,5.8,85.6,3.7,101.2c-2.1,15.6,0.8,73.2,1.7,79.6c0.9,6.4-2.3,14.5-2.7,19
			c-0.5,4.4-16.8,12.3-16.8,12.3s-31.7,7.9-34.3-2.7c0,0-15-103.9-16.3-112.5c-1.2-8.6-7.1-34-5.3-36.4s-10.8-67.3-12.2-77
			c-1.4-9.6-4.9-56.2-4.9-63.8S291.2,1091.5,290.3,1088.9z"/>
		<path class="st7" d="M492.6,1368c-0.8,4.5-10.7,16.9-43.3,18.3c0,0-7.8-1.1-9.4-11.8c0,0-0.9-6.4-1.1-7.5s2.1-0.3,2.1-0.3
			s37.8-3.3,45.3-12c0,0,2.6-4.8,2.7-3.7C489.2,1352.1,493.2,1364.6,492.6,1368z"/>
		<path class="st7" d="M383.9,1406.9c-1.4,4.6-13.4,16.3-47.8,13.6c0,0-8.1-2.1-8.3-13.6c0,0-0.1-6.9-0.2-8s2.3,0,2.3,0
			s40.1,1.4,49.1-6.8c0,0,3.3-4.7,3.4-3.5C382.4,1389.8,385,1403.5,383.9,1406.9z"/>
		<path class="st7" d="M292.6,1097.3c0,0,30.1-10.9,42.7-14.9s45.1-20.8,47.1-22.1c0,0,3.5,1.7,1.5,3.1s-45.9,23-53.5,23.1
			s-33.2,12.5-35.3,12.8C292.9,1099.4,292.6,1097.3,292.6,1097.3z"/>
		<path class="st7" d="M326.3,1072.7c0,0,1.1,15.2,3.6,17s0,0-0.2-8.7c0,0,0.5-6.4,0.1-7.6c-0.3-1.2-2.5-0.8-2.5-0.8L326.3,1072.7z"
			/>
		<path class="st7" d="M360.7,1061.2c0,0,0.8-2.3,2-1.4s5.1,12.4,5.4,14.5s-2.7,3.7-3.1,1.5S362.1,1063.2,360.7,1061.2z"/>
		<path class="st7" d="M358.4,1072.5c0,0,20.5,61.5,19.8,63.8s-9,5.7-11.8,1.7s-19.1-59.2-19.1-59.2l2.8-0.8
			c0,0,16.2,51.3,17.7,54.3s4,4.9,5.7,1.4s-16-57.8-17.3-58.8C354.9,1074,358.4,1072.5,358.4,1072.5z"/>
		<path class="st7" d="M370.8,1138.5c0,0,7.3,35,6.8,39.5c0,0,1.4,2,2.1-0.3s-5.1-35.4-5.7-39.6
			C373.4,1133.7,370.8,1138.5,370.8,1138.5z"/>
		<path class="st7" d="M399.3,1154c0,0-31.3,25.3-35.5,27s-3.7,4.9-1.7,3.5s37.9-25.2,38.5-28.5C401.3,1152.6,399.3,1154,399.3,1154
			z"/>
		<path class="st7" d="M379,1172.3c0,0,25.3,0.7,26.2-0.5c0.9-1.2,2.5,1.8-0.8,2.3c-3.2,0.5-26.5,2.4-26.6-0.2
			C377.7,1171.4,379,1172.3,379,1172.3z"/>
		<path class="st7" d="M379.4,1175.5c0,0,12.9,21.1,14.1,22s1.7,4.1-2,1.4s-12.9-21.1-13.1-22.2
			C378.4,1175.6,379.4,1175.5,379.4,1175.5z"/>
		<path class="st7" d="M319.7,1087.9c0,0,10.5,34.6-24.3,44c0,0-3.4-0.6,0.8-2.3c4.1-1.7,25.6-4.8,22.6-40.5L319.7,1087.9z"/>
		<path class="st7" d="M372.5,1067.1c0,0,20,32.1,34,23.5c0,0,2.3,0.4,3.1,2.1c0.8,1.7-18.6,11.1-39.1-24.2L372.5,1067.1z"/>
	</g>
</g>
<g>
	
		<linearGradient id="SVGID_4_" gradientUnits="userSpaceOnUse" x1="413.1466" y1="1524.2498" x2="193.1259" y2="1143.1627" gradientTransform="matrix(0.9997 -2.637459e-02 2.637459e-02 0.9997 -57.3213 251.8889)">
		<stop  offset="0" style="stop-color:#FBF3EB"/>
		<stop  offset="1" style="stop-color:#FAEECC"/>
	</linearGradient>
	<circle class="st21" cx="280.9" cy="1577.2" r="220"/>
	<path class="st22" d="M261.7,1435.2l66.2-1.7l50.7,32.7l-67,191.8c0,0-100.7,13.7-99.9-33.4
		C212.4,1577.5,261.7,1435.2,261.7,1435.2z"/>
	<path class="st15" d="M287.5,1427.5c0,0-49.4-12.7-76.5,19c-27.2,31.7-80.6,91.2-103.8,160.8c0,0-9.9,22.8-9.8,25.8
		s18.5,17.5,25.5,17.3s70.2-70.9,73-76c2.9-5.1-11.3,64.3-1.9,78.1c9.4,13.8,31.2,8.2,37.1,5c5.9-3.2,64.2-144.7,65.1-148.8
		c0.9-4,14.2-69.4,23.2-68.6s67.7-12.8,26.5,57.3s-94,154.5-92.7,162.5s16.6,23.6,58.8,30.5c0,0,47.1-73.3,49-76.3
		c1.9-3.1-16.3,104.5-17,114.5s-6.5,19.2,21.5,18.4c0,0,18-0.5,22.8-6.6s37.5-94,45.1-186.3c0,0,4.9-40.1-5.4-52.9
		c-10.3-12.7-24.8-30.4-50-38.7c0,0-6.4-14.8-11.4-15.7s-47.5-16.8-47.5-16.8L287.5,1427.5z"/>
	<path class="st5" d="M236.7,1435.8c0,0-19.3,64.5-19.2,68.5s1.2,6,2.1,4.9C220.6,1508.3,228.8,1479.1,236.7,1435.8z"/>
	<path class="st5" d="M219.7,1512.3c0,0-2.1-4.9-3.9,2.1s-4.6,14.1-5.5,20.2s-5.5,19.2-7.4,23.2c-1.9,4.1-3.7,12.1-3.6,14.1
		s6-1.2,13.2-30.4C219.7,1512.3,216.9,1520.4,219.7,1512.3z"/>
	<path class="st6" d="M314.7,1423.6c0,0,47.2,19,56.3,21.7s1.3,11-4.8,9.1c-6.1-1.8-9,0.2-9,0.2s-42.5-16.9-42.4-14.9
		C314.9,1441.8,314.7,1423.6,314.7,1423.6z"/>
	<path class="st5" d="M319.9,1440.6c3.8-17.3-7.7-24.8-30.3-10.2c-22.6,14.6-38,40-36.9,43s35.8-7.9,37.8-9c0,0,4.3,43.3,3.4,49.1
		C292.9,1519.4,317.2,1452.7,319.9,1440.6z"/>
	<path class="st5" d="M363.9,1442.5c0,0,23.9-4.6,24.9,34.4s-8.7,49.2-8.7,49.2s-18.6-23.5-26.7-26.3c0,0-23.1,32.6-32.2,30.9
		C321.2,1530.6,352.1,1448.8,363.9,1442.5z"/>
	<path class="st5" d="M424.4,1506.9c0,0-26.8,48.6-29.3,50.9c-2.4,2.3-4.2,2.8-4.2,1.6C391.1,1558.3,403.5,1536.5,424.4,1506.9z"/>
	<path class="st5" d="M394.3,1553.1c0,0,4.9-1.8,1.2,4.2s-6.6,12.8-10.1,17.4c-3.6,4.7-9.5,16.8-11,20.8s-5.8,10.8-7.3,12
		c-1.4,1.3-3.2-4.9,11.9-29.6C394.3,1553.1,390.5,1560.5,394.3,1553.1z"/>
</g>
<g>
	<g>
		
			<linearGradient id="SVGID_5_" gradientUnits="userSpaceOnUse" x1="510.6" y1="1536" x2="780.8" y2="1536" gradientTransform="matrix(1 0 0 1 0 236)">
			<stop  offset="0" style="stop-color:#BEECFB"/>
			<stop  offset="1" style="stop-color:#9ECCD3"/>
		</linearGradient>
		<circle class="st23" cx="645.7" cy="1772" r="135.1"/>
		<path class="st8" d="M544.7,1807.9c7.7,10.7,40.4,10.8,43.1,12.4c11.5,7.7,18.4,5.4,21.8,8.1c15.1,14.2,55.9,18.9,69.9,21.8
			c21.1,4.5,17,13.4,20.4,15.1c9.3,3,21.4,5.9,20.2-14c-2.2-37.2,7.7-34.3,5.8-80.4c-0.1-0.7,6.1-63.5,2.5-63.2
			c-3-4.3-41.8-0.5-54.8-0.7c-35.7-1.9-62.1-1.1-84.2,0.7c-8-3.5-14.1-3.9-23.2,0.1c-14.8,0.9-9.9,23.1-13.8,39
			C550.4,1774,538.8,1796.8,544.7,1807.9z"/>
		<path class="st9" d="M611.5,1806c-1.2-0.1-2.1-0.9-1.9-2.1c2.4-12.8,13-70.1,11.3-75.4c-1.9-5.9,39.6,10,56.4,16.7
			c0,0,3.1,28.6,2.4,32c0,0-9.5,26.2-13,29.1C666.7,1806.4,623,1807.1,611.5,1806z"/>
		<path class="st10" d="M562.2,1809.2c0,0,15.3-83.6,18.9-97.8c0,0-7.8,47.7-8.7,52.1C571.5,1767.9,563.7,1806.8,562.2,1809.2z"/>
		<path class="st10" d="M544.3,1804.6c0,0-2.7-8.2,0.3-18.4c3-10.1,6.6-20.9,7.3-38.1l4-28.7c0,0,0.6-8.6,4.5-10.8
			c0,0-2,0.8-2.9,4.9c-0.8,4.1-3.5,24.2-3.5,24.2s-1.7,23.3-3.3,28.7c-1.6,5.4-6.5,22.5-6.7,25.4
			C543.8,1794.9,543.6,1797.6,544.3,1804.6z"/>
		<path class="st11" d="M555.9,1719.5c0,0-8.5,41.3-3,42.9s18.9,3.2,21.8,4.6c0,0,3.1-9,5.1-10.7s2-18.9,3.1-25.6s0-9.2-2.4-9.4
			c-2.4-0.2-21.7-3.3-23.6-4.4L555.9,1719.5z"/>
		<path class="st10" d="M609.4,1805.2c0,0,13.5-63.2,11.8-78C611.5,1799.1,611.6,1799,609.4,1805.2z"/>
		<path class="st10" d="M617.9,1805.8c0,0,14.2-70.3,12.7-76.4c0,0,0.7,7.5-4.2,35.9S617.9,1805.8,617.9,1805.8z"/>
		<path class="st12" d="M556.7,1717.1c0,0,13.2,4.6,20.4,7s-2.4,42.9-2.4,42.9s3.2-10.2,5.1-10.7s3.8-29.8,3.4-31.7s1.3-3.2-8.6-4.2
			C574.5,1720.4,557.9,1717.8,556.7,1717.1z"/>
	</g>
	<path class="st13" d="M621.5,1726.9c0,0,53.8,18.4,56.8,27.5c0,0,0.2-7.1-0.8-9.7C676.5,1742.2,626.5,1727,621.5,1726.9z"/>
	<path class="st13" d="M729.4,1719c0,0-37.5-5.9-64.9-7s-78.1-3.1-78.1-3.1l-25.9,0.2c0,0,16.6-7.5,25.7-2.6c0,0,8.4,1.3,9.8,0.7
		c0,0,61-2.3,71.5-0.4s44-1.4,45.8-1.1c1.7,0.3,15.3-1.8,15.8,3.9S729.4,1719,729.4,1719z"/>
	<path class="st13" d="M581.1,1711.4c0,0,140.6,0.7,148.1,14.9c0,0,0.9-8,0.1-9.8c-0.8-1.8-89.9-7.5-89.9-7.5l-64.5-1.5l-14.3,1.7
		C560.6,1709.1,578.7,1708.8,581.1,1711.4z"/>
</g>
<g>
	
		<ellipse transform="matrix(0.7071 -0.7071 0.7071 0.7071 -1322.1107 874.3441)" class="st7" cx="394.4" cy="2033.1" rx="98.8" ry="98.8"/>
	<path class="st24" d="M429.1,1978.9l23.1,18.6l7.8,25.9l-78.7,46.1c0,0-38.4-24.6-24.5-40.5
		C370.9,2013.3,429.1,1978.9,429.1,1978.9z"/>
	<path class="st25" d="M440.1,1983.8c0,0-13.2-18.7-31.7-15.7s-54.1,7.7-82.2,24.8c0,0-10,4.9-10.9,6c-0.8,1,1.2,11.4,3.7,13.3
		s44.6-3.8,47.1-4.8c2.5-0.9-22.6,18.7-23.4,26.1s8.3,11.9,11.2,12.5c2.9,0.6,64-30.8,65.5-32c1.5-1.1,25-19.6,27.9-16.7
		s26.9,15.3-7.6,27.3s-77.1,25.5-79,28.6s-1.2,12.9,11.3,27.5c0,0,37.4-11.4,38.9-11.9s-35.9,31-39.1,34.2s-7.8,4.7,2,12.6
		c0,0,6.3,5.1,9.7,4.4c3.4-0.7,40.2-21.2,69.6-50.6c0,0,13.4-12.3,13.5-19.7c0.2-7.4,0.3-17.6-5.9-27.8c0,0,2.1-6.9,0.7-8.7
		c-1.5-1.8-11.4-19.5-11.4-19.5L440.1,1983.8z"/>
	<path class="st5" d="M420.3,1971.9c0,0-25.4,16.5-26.5,17.9s-1.3,2.4-0.7,2.3C393.8,1992,405.1,1984.4,420.3,1971.9z"/>
	<path class="st5" d="M392.3,1993.1c0,0,0.7-2.3-2-0.4s-5.7,3.5-7.7,5.3s-7.4,5-9.3,5.8s-4.8,3.1-5.3,3.8c-0.6,0.7,2.4,1.3,13.3-6.5
		C392.3,1993.1,389,1995.1,392.3,1993.1z"/>
	<path class="st6" d="M450.6,1990.4c0,0,10.6,20.2,12.9,23.8s-2.7,4.1-4.3,1.7c-1.5-2.4-3.1-2.5-3.1-2.5s-9.6-18.1-10.2-17.4
		C445.4,1996.7,450.6,1990.4,450.6,1990.4z"/>
	<path class="st5" d="M447.4,1997.7c6.3-4.8,4.6-10.7-7.4-12.3s-24.6,2.7-25.1,4s14.6,7.7,15.5,7.9c0,0-11.1,16.1-13.1,17.8
		S443,2001.1,447.4,1997.7z"/>
	<path class="st5" d="M461.9,2011.1c0,0,9.5,5.4-1.5,19s-17.3,14.3-17.3,14.3s0.5-13.5-1.5-16.8c0,0-17.4,4.4-20,1.2
		C421.7,2028.9,456,2009.9,461.9,2011.1z"/>
	<path class="st5" d="M463.9,2050.8c0,0-23.3,8.9-24.8,8.9c-1.5,0.1-2.2-0.3-1.9-0.7C437.6,2058.6,448.1,2054.8,463.9,2050.8z"/>
	<path class="st5" d="M440.1,2057.8c0,0,2.2,0.8-0.8,1.8s-6,2.4-8.5,3c-2.6,0.6-8.1,3-9.8,3.9c-1.7,0.9-5.1,2-6,2s0.3-2.6,12.7-6.7
		C440.1,2057.8,436.7,2059.3,440.1,2057.8z"/>
</g>
<g>
	
		<linearGradient id="SVGID_6_" gradientUnits="userSpaceOnUse" x1="738.1" y1="664.1" x2="896.1" y2="664.1" gradientTransform="matrix(1 0 0 1 0 236)">
		<stop  offset="0" style="stop-color:#FBF3EB"/>
		<stop  offset="1" style="stop-color:#FAEECC"/>
	</linearGradient>
	<circle class="st26" cx="817.1" cy="900.1" r="79"/>
	<g>
		<g>
			<g>
				<path class="st22" d="M826.3,874.5c0,0-29.5-9-41.4-20.3c0,0-9.7-7.3-7.5,2.4c0,0,1.1,6.5-1.3,10.9c-2.4,4.4-8.2,14.3-7.4,17.1
					c0,0,0.1,3.7-0.6,5.4c-0.7,1.6-5.4,7.4-8.4,11.8s-4.7,8.4-6.3,10.2s-2.4,1.9-4.5,3.3s-1.3,2.7-0.2,3.4s1.5,1.1,1.5,1.1l35.9,7.7
					l52.2,20.6l14.8,8.1l2.7-8.8l11.5-39l12.6-15.4c0,0,2.8-1.8,2.8-3s-16.7-3-22.7-5.3C859.9,884.4,829.8,876.5,826.3,874.5z"/>
				<path class="st27" d="M857.2,928.7c0,0,9.3-36.6,24.9-37.7c0,0-1.8,1.9-3.4,3.7s-6.4,8.7-8.2,13.9s-3.8,7.5-4.2,8.8
					s-3.3,11.9-4.1,16.4s-4.1,13.3-4.7,19.1c0,0-0.2,2-0.2,3.2s-0.2,5.9-5.3,3.7s-33.4-17-51.4-23.4s-39.5-13.3-44.5-14.3
					c-5.1-1-7.4-2.7-7.9-3.1s11.9-3.7,26.9,2.8c0,0,27.8,9.3,44.5,13.8c16.7,4.6,28.2,11.1,33.3,16.5
					C853,952.2,853.1,941.3,857.2,928.7z"/>
			</g>
			<path class="st15" d="M864.9,885.2c-1.9-0.4-3.6-0.9-4.9-1.4c0,0-30.1-7.9-33.6-10c0,0-22.2-6.8-35.9-15.9
				c-14.3,8.6-28.6,51.4-32.6,64c7,1.7,26.5,8,42.9,13.9c11.7,4.2,27.9,11.9,39.1,17.4c3-29.7,19.9-59.6,24.8-67.7
				C864.8,885.4,864.9,885.3,864.9,885.2z"/>
			<path class="st15" d="M864.1,885.2c0,0,2.4,0.7,3.6,0.6c0,0,1.2,0.3-0.4,0.5C865.8,886.4,864.1,885.2,864.1,885.2z"/>
			<path class="st15" d="M864,886c0,0,2.4,0.7,3.6,0.6c0,0,1.2,0.3-0.4,0.5C865.6,887.2,864,886,864,886z"/>
			<path class="st15" d="M863.8,886.6c0,0,2.4,0.9,3.5,0.8c0,0,1.2,0.4-0.4,0.4C865.3,887.9,863.8,886.6,863.8,886.6z"/>
			<path class="st15" d="M862.5,889.2c0,0,2,1.5,3.2,1.8c0,0,1,0.7-0.5,0.3S862.5,889.2,862.5,889.2z"/>
			<path class="st15" d="M862.8,888.3c0,0,2,1.6,3.1,1.9c0,0,1,0.8-0.5,0.3S862.8,888.3,862.8,888.3z"/>
			<path class="st15" d="M863.5,887.1c0,0,2.4,0.9,3.5,0.8c0,0,1.2,0.4-0.4,0.4S863.5,887.1,863.5,887.1z"/>
			<path class="st15" d="M863.2,887.9c0,0,2.4,0.9,3.5,0.8c0,0,1.2,0.4-0.4,0.4C864.8,889.1,863.2,887.9,863.2,887.9z"/>
			<path class="st15" d="M862,889.7c0,0,1.9,1.6,3,2.1c0,0,0.9,0.8-0.5,0.3S862,889.7,862,889.7z"/>
			<path class="st15" d="M861.6,890.5c0,0,1.9,1.6,3,2c0,0,1,0.8-0.5,0.3C862.7,892.2,861.6,890.5,861.6,890.5z"/>
			<path class="st15" d="M861.3,891c0,0,1.8,1.7,2.9,2.2c0,0,0.9,0.9-0.5,0.2C862.2,892.8,861.3,891,861.3,891z"/>
			<path class="st15" d="M859.7,893.7c0,0,1.7,1.9,2.7,2.4c0,0,0.8,0.9-0.5,0.2C860.5,895.6,859.7,893.7,859.7,893.7z"/>
			<path class="st15" d="M860.2,893c0,0,1.6,1.9,2.6,2.6c0,0,0.8,1-0.6,0.2C860.8,894.9,860.2,893,860.2,893z"/>
			<path class="st15" d="M860.8,891.6c0,0,2,1.5,3.1,1.8c0,0,1,0.8-0.5,0.3C861.9,893.3,860.8,891.6,860.8,891.6z"/>
			<path class="st15" d="M860.4,892.2c0,0,1.9,1.6,3,2c0,0,1,0.8-0.5,0.3S860.4,892.2,860.4,892.2z"/>
			<path class="st15" d="M859.3,894.9c0,0,2.1,1.4,3.2,1.7c0,0,1,0.7-0.5,0.3S859.3,894.9,859.3,894.9z"/>
			<path class="st15" d="M858.9,895.6c0,0,2.1,1.4,3.2,1.7c0,0,1,0.7-0.5,0.3C860.1,897.3,858.9,895.6,858.9,895.6z"/>
			<path class="st15" d="M858.5,896.1c0,0,2,1.6,3.1,1.9c0,0,1,0.8-0.5,0.3S858.5,896.1,858.5,896.1z"/>
			<path class="st15" d="M858.1,896.5c0,0,2,1.6,3.1,1.9c0,0,1,0.8-0.5,0.3C859.2,898.2,858.1,896.5,858.1,896.5z"/>
			<path class="st15" d="M857.6,897.1c0,0,2,1.6,3.1,1.9c0,0,1,0.8-0.5,0.3C858.7,898.8,857.6,897.1,857.6,897.1z"/>
			<path class="st15" d="M857.2,898.9c0,0,2,1.5,3.1,1.8c0,0,1,0.8-0.5,0.3S857.2,898.9,857.2,898.9z"/>
			<path class="st15" d="M857.5,898c0,0,1.9,1.6,3,2c0,0,1,0.8-0.5,0.3S857.5,898,857.5,898z"/>
			<path class="st15" d="M856.6,899.3c0,0,1.9,1.7,3,2.1c0,0,0.9,0.8-0.5,0.3C857.6,901.1,856.6,899.3,856.6,899.3z"/>
			<path class="st15" d="M856.3,900.1c0,0,1.9,1.6,3,2c0,0,1,0.8-0.5,0.3S856.3,900.1,856.3,900.1z"/>
			<path class="st15" d="M856,900.7c0,0,1.8,1.8,2.8,2.3c0,0,0.9,0.9-0.5,0.2S856,900.7,856,900.7z"/>
			<path class="st15" d="M854.3,903.3c0,0,1.6,1.9,2.7,2.5c0,0,0.8,0.9-0.6,0.2C855,905.2,854.3,903.3,854.3,903.3z"/>
			<path class="st15" d="M854.8,902.6c0,0,1.5,2,2.5,2.6c0,0,0.8,1-0.6,0.2C855.4,904.5,854.8,902.6,854.8,902.6z"/>
			<path class="st15" d="M855.4,901.3c0,0,2,1.5,3.1,1.9c0,0,1,0.8-0.5,0.3S855.4,901.3,855.4,901.3z"/>
			<path class="st15" d="M855.1,901.9c0,0,1.9,1.6,3,2c0,0,1,0.8-0.5,0.3C856.1,903.6,855.1,901.9,855.1,901.9z"/>
			<path class="st15" d="M853.6,905.7c0,0,2.2,1.1,3.4,1.2c0,0,1.1,0.6-0.4,0.4C855,907.2,853.6,905.7,853.6,905.7z"/>
			<path class="st15" d="M853.8,904.8c0,0,2.2,1.2,3.3,1.4c0,0,1.1,0.6-0.5,0.4S853.8,904.8,853.8,904.8z"/>
			<path class="st15" d="M853.2,906.3c0,0,2.1,1.3,3.3,1.5c0,0,1.1,0.7-0.5,0.3C854.5,907.9,853.2,906.3,853.2,906.3z"/>
			<path class="st15" d="M852.9,907.1c0,0,2.2,1.3,3.3,1.5c0,0,1.1,0.6-0.5,0.4C854.3,908.7,852.9,907.1,852.9,907.1z"/>
			<path class="st15" d="M852.7,907.7c0,0,2.1,1.4,3.2,1.7c0,0,1,0.7-0.5,0.3C854,909.4,852.7,907.7,852.7,907.7z"/>
			<path class="st15" d="M851.6,910.7c0,0,2,1.6,3.1,1.9c0,0,1,0.8-0.5,0.3C852.6,912.4,851.6,910.7,851.6,910.7z"/>
			<path class="st15" d="M851.9,909.8c0,0,1.9,1.7,3,2.1c0,0,0.9,0.8-0.5,0.3C852.9,911.6,851.9,909.8,851.9,909.8z"/>
			<path class="st15" d="M852.3,908.4c0,0,2.2,1.2,3.4,1.3c0,0,1.1,0.6-0.4,0.4C853.7,909.9,852.3,908.4,852.3,908.4z"/>
			<path class="st15" d="M852.1,909.1c0,0,2.2,1.3,3.3,1.5c0,0,1.1,0.6-0.5,0.4C853.4,910.6,852.1,909.1,852.1,909.1z"/>
			<path class="st15" d="M851.1,911.5c0,0,2.4,0.5,3.6,0.4c0,0,1.2,0.3-0.3,0.5S851.1,911.5,851.1,911.5z"/>
			<path class="st15" d="M851,912.3c0,0,2.4,0.5,3.6,0.4c0,0,1.2,0.3-0.3,0.5S851,912.3,851,912.3z"/>
			<path class="st15" d="M850.8,912.9c0,0,2.4,0.7,3.6,0.7c0,0,1.2,0.4-0.4,0.4C852.5,914.1,850.8,912.9,850.8,912.9z"/>
			<path class="st15" d="M849.7,915.5c0,0,2.1,1.4,3.2,1.6c0,0,1,0.7-0.5,0.3C850.9,917.1,849.7,915.5,849.7,915.5z"/>
			<path class="st15" d="M850,914.7c0,0,2,1.5,3.2,1.8c0,0,1,0.7-0.5,0.3C851.1,916.3,850,914.7,850,914.7z"/>
			<path class="st15" d="M850.6,913.4c0,0,2.4,0.7,3.6,0.7c0,0,1.2,0.4-0.4,0.4C852.2,914.6,850.6,913.4,850.6,913.4z"/>
			<path class="st15" d="M850.4,914.2c0,0,2.4,0.7,3.6,0.7c0,0,1.2,0.4-0.4,0.4C852,915.4,850.4,914.2,850.4,914.2z"/>
			<path class="st15" d="M849.2,916c0,0,2,1.5,3.1,1.9c0,0,1,0.8-0.5,0.3S849.2,916,849.2,916z"/>
			<path class="st15" d="M848.9,916.8c0,0,2,1.5,3.1,1.8c0,0,1,0.8-0.5,0.3C850,918.5,848.9,916.8,848.9,916.8z"/>
			<path class="st15" d="M848.6,917.4c0,0,1.9,1.6,3,2.1c0,0,0.9,0.8-0.5,0.3C849.6,919.2,848.6,917.4,848.6,917.4z"/>
			<path class="st15" d="M847.3,920.5c0,0,2,1.5,3.2,1.8c0,0,1,0.7-0.5,0.3C848.4,922.2,847.3,920.5,847.3,920.5z"/>
			<path class="st15" d="M847.6,919.7c0,0,2,1.6,3.1,1.9c0,0,1,0.8-0.5,0.3C848.6,921.4,847.6,919.7,847.6,919.7z"/>
			<path class="st15" d="M848.1,918c0,0,2.1,1.4,3.2,1.7c0,0,1,0.7-0.5,0.3C849.3,919.7,848.1,918,848.1,918z"/>
			<path class="st15" d="M847.8,918.7c0,0,2,1.5,3.1,1.8c0,0,1,0.7-0.5,0.3C848.9,920.4,847.8,918.7,847.8,918.7z"/>
			<path class="st15" d="M847.2,921.8c0,0,2.3,0.9,3.5,0.9c0,0,1.2,0.5-0.4,0.4C848.7,923.1,847.2,921.8,847.2,921.8z"/>
			<path class="st15" d="M846.9,922.6c0,0,2.3,0.9,3.5,0.9c0,0,1.2,0.5-0.4,0.4S846.9,922.6,846.9,922.6z"/>
			<path class="st15" d="M846.7,923.1c0,0,2.2,1.1,3.4,1.2c0,0,1.1,0.6-0.4,0.4C848.1,924.6,846.7,923.1,846.7,923.1z"/>
			<path class="st15" d="M846.3,923.6c0,0,2.2,1.1,3.4,1.2c0,0,1.1,0.6-0.4,0.4C847.7,925,846.3,923.6,846.3,923.6z"/>
			<path class="st15" d="M846,924.3c0,0,2.2,1.1,3.4,1.2c0,0,1.1,0.6-0.4,0.4C847.4,925.8,846,924.3,846,924.3z"/>
			<path class="st15" d="M845.9,926.1c0,0,2.3,1,3.5,1.1c0,0,1.1,0.5-0.4,0.4S845.9,926.1,845.9,926.1z"/>
			<path class="st15" d="M846,925.2c0,0,2.2,1.2,3.4,1.3c0,0,1.1,0.6-0.4,0.4S846,925.2,846,925.2z"/>
			<path class="st15" d="M845.5,926.7c0,0,2.2,1.2,3.3,1.4c0,0,1.1,0.6-0.5,0.4C846.8,928.2,845.5,926.7,845.5,926.7z"/>
			<path class="st15" d="M845.3,927.5c0,0,2.2,1.2,3.4,1.4c0,0,1.1,0.6-0.5,0.4S845.3,927.5,845.3,927.5z"/>
			<path class="st15" d="M845.1,928.1c0,0,2.1,1.3,3.3,1.6c0,0,1.1,0.7-0.5,0.3C846.4,929.7,845.1,928.1,845.1,928.1z"/>
			<path class="st15" d="M844.3,930.3c0,0,1.9,1.6,3,2c0,0,1,0.8-0.5,0.3C845.4,932,844.3,930.3,844.3,930.3z"/>
			<path class="st15" d="M844.7,928.8c0,0,2.3,1.1,3.4,1.2c0,0,1.1,0.5-0.4,0.4S844.7,928.8,844.7,928.8z"/>
			<path class="st15" d="M844.5,929.5c0,0,2.2,1.2,3.4,1.3c0,0,1.1,0.6-0.4,0.4C845.8,931,844.5,929.5,844.5,929.5z"/>
			<path class="st15" d="M843.6,932.1c0,0,2.2,1.2,3.3,1.4c0,0,1.1,0.6-0.5,0.4S843.6,932.1,843.6,932.1z"/>
			<path class="st15" d="M843.8,931.2c0,0,2.1,1.4,3.3,1.6c0,0,1.1,0.7-0.5,0.3S843.8,931.2,843.8,931.2z"/>
			<path class="st15" d="M843.6,933.3c0,0,2.4,0.7,3.6,0.6c0,0,1.2,0.3-0.4,0.5C845.3,934.5,843.6,933.3,843.6,933.3z"/>
			<path class="st15" d="M843.5,934.2c0,0,2.4,0.7,3.6,0.6c0,0,1.2,0.3-0.4,0.5C845.1,935.3,843.5,934.2,843.5,934.2z"/>
			<path class="st15" d="M843.3,934.7c0,0,2.4,0.9,3.5,0.9c0,0,1.2,0.4-0.4,0.4C844.9,936,843.3,934.7,843.3,934.7z"/>
			<path class="st15" d="M843,935.2c0,0,2.4,0.9,3.5,0.9c0,0,1.2,0.4-0.4,0.4C844.6,936.5,843,935.2,843,935.2z"/>
			<path class="st15" d="M842.7,936c0,0,2.4,0.9,3.5,0.9c0,0,1.2,0.4-0.4,0.4C844.3,937.3,842.7,936,842.7,936z"/>
			<path class="st15" d="M842.5,937.6c0,0,2.4,0.8,3.6,0.8c0,0,1.2,0.4-0.4,0.4C844.1,938.9,842.5,937.6,842.5,937.6z"/>
			<path class="st15" d="M842.5,936.7c0,0,2.3,0.9,3.5,0.9c0,0,1.2,0.5-0.4,0.4S842.5,936.7,842.5,936.7z"/>
			<path class="st15" d="M842.1,938.3c0,0,2.3,1,3.5,1.1c0,0,1.1,0.5-0.4,0.4C843.6,939.6,842.1,938.3,842.1,938.3z"/>
			<path class="st15" d="M842,939.1c0,0,2.3,1,3.5,1c0,0,1.2,0.5-0.4,0.4C843.5,940.5,842,939.1,842,939.1z"/>
			<path class="st15" d="M841.9,939.8c0,0,2.2,1.1,3.4,1.2c0,0,1.1,0.6-0.4,0.4C843.3,941.2,841.9,939.8,841.9,939.8z"/>
			<path class="st15" d="M841.4,942c0,0,2.1,1.4,3.2,1.7c0,0,1,0.7-0.5,0.3S841.4,942,841.4,942z"/>
			<path class="st15" d="M841.6,940.5c0,0,2.4,0.8,3.5,0.8c0,0,1.2,0.4-0.4,0.4S841.6,940.5,841.6,940.5z"/>
			<path class="st15" d="M841.4,941.2c0,0,2.3,0.9,3.5,1c0,0,1.2,0.5-0.4,0.4C843,942.5,841.4,941.2,841.4,941.2z"/>
			<path class="st15" d="M840.9,943.8c0,0,2.4,0.8,3.6,0.8c0,0,1.2,0.4-0.4,0.4C842.5,945.1,840.9,943.8,840.9,943.8z"/>
			<path class="st15" d="M841,943c0,0,2.3,0.9,3.5,0.9c0,0,1.2,0.5-0.4,0.4C842.5,944.3,841,943,841,943z"/>
			<path class="st15" d="M840.6,944.5c0,0,2.3,1,3.5,1.1c0,0,1.1,0.5-0.4,0.4S840.6,944.5,840.6,944.5z"/>
			<path class="st15" d="M840.5,945.3c0,0,2.3,1,3.5,1c0,0,1.2,0.5-0.4,0.4S840.5,945.3,840.5,945.3z"/>
			<path class="st15" d="M840.5,946.2c0,0,2.4,0.9,3.5,0.9c0,0,1.2,0.4-0.4,0.4C842.1,947.5,840.5,946.2,840.5,946.2z"/>
			<path class="st28" d="M840.2,948.5c0,0,2.2,1.2,3.4,1.3c0,0,1.1,0.6-0.4,0.4C841.6,950,840.2,948.5,840.2,948.5z"/>
			<path class="st15" d="M840.2,947c0,0,2.4,0.6,3.6,0.4c0,0,1.2,0.3-0.3,0.5C841.9,948.1,840.2,947,840.2,947z"/>
			<path class="st15" d="M840.2,947.7c0,0,2.4,0.7,3.6,0.6c0,0,1.2,0.3-0.4,0.5S840.2,947.7,840.2,947.7z"/>
			<path class="st28" d="M840,950.1c0,0,2.4,0.8,3.6,0.8c0,0,1.2,0.4-0.4,0.4C841.6,951.4,840,950.1,840,950.1z"/>
			<path class="st28" d="M840,949.2c0,0,2.3,0.9,3.5,0.9c0,0,1.2,0.5-0.4,0.4C841.5,950.5,840,949.2,840,949.2z"/>
			<path class="st28" d="M839.6,950.7c0,0,2.3,1,3.5,1.1c0,0,1.1,0.5-0.4,0.4S839.6,950.7,839.6,950.7z"/>
			<path class="st28" d="M839.5,951.6c0,0,2.3,1,3.5,1c0,0,1.2,0.5-0.4,0.4C841,953,839.5,951.6,839.5,951.6z"/>
			<path class="st28" d="M839.4,952.2c0,0,2.2,1.1,3.4,1.2c0,0,1.1,0.6-0.4,0.4S839.4,952.2,839.4,952.2z"/>
			<path class="st28" d="M839.7,952.6c0,0,1.9,1.7,3,2.1c0,0,0.9,0.8-0.5,0.3S839.7,952.6,839.7,952.6z"/>
			<path class="st15" d="M791.7,859.5c0,0-1.8-1.8-2.2-2.9c0,0-0.9-0.9-0.2,0.5C789.8,858.6,791.7,859.5,791.7,859.5z"/>
			<path class="st15" d="M791,860c0,0-1.8-1.8-2.2-2.9c0,0-0.9-0.9-0.2,0.5C789.2,859.1,791,860,791,860z"/>
			<path class="st15" d="M790.6,860.5c0,0-1.9-1.6-2.5-2.7c0,0-1-0.8-0.2,0.6S790.6,860.5,790.6,860.5z"/>
			<path class="st15" d="M788.5,862.3c0,0-2-1.6-2.6-2.6c0,0-1-0.8-0.2,0.6C786.6,861.6,788.5,862.3,788.5,862.3z"/>
			<path class="st15" d="M789.2,861.8c0,0-2-1.5-2.7-2.4c0,0-1-0.7-0.1,0.6C787.3,861.2,789.2,861.8,789.2,861.8z"/>
			<path class="st15" d="M790.3,861c0,0-1.9-1.6-2.5-2.7c0,0-0.9-0.8-0.2,0.6S790.3,861,790.3,861z"/>
			<path class="st15" d="M789.8,861.6c0,0-1.9-1.6-2.5-2.7c0,0-0.9-0.8-0.2,0.6C787.9,860.8,789.8,861.6,789.8,861.6z"/>
			<path class="st15" d="M788.1,863c0,0-2.1-1.4-2.8-2.3c0,0-1-0.7-0.1,0.6S788.1,863,788.1,863z"/>
			<path class="st15" d="M787.5,863.5c0,0-2.1-1.4-2.7-2.4c0,0-1-0.7-0.1,0.6C785.5,863,787.5,863.5,787.5,863.5z"/>
			<path class="st15" d="M787,864c0,0-2.2-1.3-2.9-2.2c0,0-1.1-0.6-0.1,0.6C785,863.6,787,864,787,864z"/>
			<path class="st15" d="M785.2,866c0,0-2.4-0.7-3.4-1.4c0,0-1.2-0.3,0.1,0.6C783.1,866.1,785.2,866,785.2,866z"/>
			<path class="st15" d="M785.5,865.6c0,0-2.3-1-3.1-1.8c0,0-1.1-0.5,0,0.6C783.4,865.5,785.5,865.6,785.5,865.6z"/>
			<path class="st15" d="M786.6,864.7c0,0-2-1.5-2.6-2.5c0,0-1-0.8-0.2,0.6C784.6,864,786.6,864.7,786.6,864.7z"/>
			<path class="st15" d="M786.1,865.1c0,0-2-1.4-2.7-2.4c0,0-1-0.7-0.1,0.6C784.1,864.6,786.1,865.1,786.1,865.1z"/>
			<path class="st15" d="M784.3,866.9c0,0-2.2-1.3-2.9-2.2c0,0-1.1-0.6-0.1,0.6C782.3,866.5,784.3,866.9,784.3,866.9z"/>
			<path class="st15" d="M783.8,867.6c0,0-2.2-1.3-2.9-2.2c0,0-1.1-0.6-0.1,0.6C781.8,867.2,783.8,867.6,783.8,867.6z"/>
			<path class="st15" d="M783.5,868.1c0,0-2.3-1.1-3.1-1.9c0,0-1.1-0.5,0,0.6C781.5,867.9,783.5,868.1,783.5,868.1z"/>
			<path class="st15" d="M783.4,868.7c0,0-2.3-1.1-3.1-1.9c0,0-1.1-0.5,0,0.6C781.4,868.4,783.4,868.7,783.4,868.7z"/>
			<path class="st15" d="M783,869.4c0,0-2.3-1.1-3.1-1.9c0,0-1.1-0.5,0,0.6C781,869.1,783,869.4,783,869.4z"/>
			<path class="st15" d="M781.7,870.5c0,0-2.2-1.1-3-2c0,0-1.1-0.6,0,0.6S781.7,870.5,781.7,870.5z"/>
			<path class="st15" d="M782.3,869.9c0,0-2.3-1-3.1-1.8c0,0-1.1-0.5,0,0.6C780.2,869.7,782.3,869.9,782.3,869.9z"/>
			<path class="st15" d="M781.5,871.2c0,0-2.3-0.9-3.2-1.7c0,0-1.2-0.5,0,0.6C779.4,871.1,781.5,871.2,781.5,871.2z"/>
			<path class="st15" d="M780.9,871.9c0,0-2.3-1-3.2-1.8c0,0-1.2-0.5,0,0.6S780.9,871.9,780.9,871.9z"/>
			<path class="st15" d="M780.6,872.4c0,0-2.4-0.8-3.3-1.6c0,0-1.2-0.4,0,0.6S780.6,872.4,780.6,872.4z"/>
			<path class="st15" d="M778.9,875.1c0,0-2.4-0.6-3.4-1.3c0,0-1.2-0.3,0.1,0.6C776.9,875.3,778.9,875.1,778.9,875.1z"/>
			<path class="st15" d="M779.4,874.4c0,0-2.5-0.5-3.5-1.1c0,0-1.2-0.3,0.1,0.6S779.4,874.4,779.4,874.4z"/>
			<path class="st15" d="M780.3,873.2c0,0-2.3-1.1-3.1-1.9c0,0-1.1-0.5,0,0.6C778.3,873,780.3,873.2,780.3,873.2z"/>
			<path class="st15" d="M779.9,873.8c0,0-2.3-1-3.2-1.8c0,0-1.1-0.5,0,0.6S779.9,873.8,779.9,873.8z"/>
			<path class="st15" d="M777.9,876.6c0,0-2.4-0.8-3.3-1.5c0,0-1.2-0.4,0,0.6C775.9,876.6,777.9,876.6,777.9,876.6z"/>
			<path class="st15" d="M777.8,876.2c0,0-2.1-1.4-2.8-2.4c0,0-1-0.7-0.1,0.6S777.8,876.2,777.8,876.2z"/>
			<path class="st15" d="M777.9,877.3c0,0-2.4-0.6-3.4-1.2c0,0-1.2-0.3,0.1,0.6C775.8,877.5,777.9,877.3,777.9,877.3z"/>
			<path class="st15" d="M777.4,878.1c0,0-2.4-0.6-3.4-1.3c0,0-1.2-0.3,0.1,0.6C775.4,878.2,777.4,878.1,777.4,878.1z"/>
			<path class="st15" d="M777.1,878.6c0,0-2.5-0.4-3.5-1c0,0-1.2-0.2,0.1,0.6S777.1,878.6,777.1,878.6z"/>
			<path class="st15" d="M775.9,881.2c0,0-2.5-0.4-3.5-1c0,0-1.2-0.2,0.1,0.6C773.9,881.5,775.9,881.2,775.9,881.2z"/>
			<path class="st15" d="M776.3,880.4c0,0-2.5-0.3-3.5-0.8c0,0-1.2-0.1,0.2,0.6C774.3,880.8,776.3,880.4,776.3,880.4z"/>
			<path class="st15" d="M777,879.4c0,0-2.4-0.7-3.3-1.4c0,0-1.2-0.4,0.1,0.6S777,879.4,777,879.4z"/>
			<path class="st15" d="M776.7,880.1c0,0-2.4-0.6-3.4-1.3c0,0-1.2-0.3,0.1,0.6C774.7,880.2,776.7,880.1,776.7,880.1z"/>
			<path class="st15" d="M775.6,882.1c0,0-2-1.5-2.7-2.4c0,0-1-0.7-0.1,0.6C773.6,881.5,775.6,882.1,775.6,882.1z"/>
			<path class="st15" d="M775,882.7c0,0-2-1.5-2.7-2.4c0,0-1-0.7-0.1,0.6C773.1,882.2,775,882.7,775,882.7z"/>
			<path class="st15" d="M774.7,883.2c0,0-2.1-1.3-2.9-2.2c0,0-1.1-0.6-0.1,0.6S774.7,883.2,774.7,883.2z"/>
			<path class="st15" d="M773.6,885.5c0,0-2.4-0.6-3.4-1.3c0,0-1.2-0.3,0.1,0.6C771.6,885.6,773.6,885.5,773.6,885.5z"/>
			<path class="st15" d="M774.1,884.7c0,0-2.5-0.5-3.4-1.1c0,0-1.2-0.3,0.1,0.6C772.1,885,774.1,884.7,774.1,884.7z"/>
			<path class="st15" d="M774.5,883.8c0,0-2.1-1.3-2.9-2.2c0,0-1.1-0.6-0.1,0.6S774.5,883.8,774.5,883.8z"/>
			<path class="st15" d="M774.1,884.4c0,0-2.1-1.3-2.9-2.2c0,0-1.1-0.6-0.1,0.6C772.1,884,774.1,884.4,774.1,884.4z"/>
			<path class="st15" d="M773.6,886.2c0,0-2.5-0.4-3.5-1c0,0-1.2-0.2,0.1,0.6S773.6,886.2,773.6,886.2z"/>
			<path class="st15" d="M773.2,887c0,0-2.5-0.5-3.5-1.1c0,0-1.2-0.2,0.1,0.6C771.2,887.3,773.2,887,773.2,887z"/>
			<path class="st15" d="M773,887.5c0,0-2.5-0.3-3.5-0.8c0,0-1.2-0.2,0.2,0.6C771,888,773,887.5,773,887.5z"/>
			<path class="st15" d="M771.5,890.6c0,0-2.4-0.5-3.4-1.2c0,0-1.2-0.3,0.1,0.6C769.5,890.9,771.5,890.6,771.5,890.6z"/>
			<path class="st15" d="M771.9,889.8c0,0-2.5-0.4-3.5-1c0,0-1.2-0.2,0.1,0.6S771.9,889.8,771.9,889.8z"/>
			<path class="st15" d="M772.8,888.4c0,0-2.4-0.6-3.4-1.3c0,0-1.2-0.3,0.1,0.6C770.8,888.5,772.8,888.4,772.8,888.4z"/>
			<path class="st15" d="M772.6,889c0,0-2.5-0.5-3.5-1.1c0,0-1.2-0.3,0.1,0.6S772.6,889,772.6,889z"/>
			<path class="st15" d="M771.3,892.1c0,0-2.2-1.1-3-2c0,0-1.1-0.6,0,0.6S771.3,892.1,771.3,892.1z"/>
			<path class="st15" d="M770.9,892.9c0,0-2.2-1.1-3-2c0,0-1.1-0.6,0,0.6C768.9,892.6,770.9,892.9,770.9,892.9z"/>
			<path class="st15" d="M770.9,893c0,0-2.5-0.4-3.5-1c0,0-1.2-0.2,0.1,0.6C768.9,893.3,770.9,893,770.9,893z"/>
			<path class="st15" d="M770.9,893.6c0,0-2.5-0.4-3.5-1c0,0-1.2-0.2,0.1,0.6S770.9,893.6,770.9,893.6z"/>
			<path class="st15" d="M770.7,894.3c0,0-2.5-0.4-3.5-1c0,0-1.2-0.2,0.1,0.6C768.7,894.6,770.7,894.3,770.7,894.3z"/>
			<path class="st15" d="M769.7,895.8c0,0-2.5-0.5-3.5-1.1c0,0-1.2-0.3,0.1,0.6C767.7,896.1,769.7,895.8,769.7,895.8z"/>
			<path class="st15" d="M770.1,895c0,0-2.5-0.4-3.5-0.9c0,0-1.2-0.2,0.1,0.6C768.1,895.4,770.1,895,770.1,895z"/>
			<path class="st15" d="M769.7,896.5c0,0-2.5-0.3-3.5-0.8c0,0-1.2-0.1,0.2,0.6C767.7,897,769.7,896.5,769.7,896.5z"/>
			<path class="st15" d="M769.4,897.3c0,0-2.5-0.3-3.5-0.9c0,0-1.2-0.2,0.1,0.6C767.4,897.7,769.4,897.3,769.4,897.3z"/>
			<path class="st15" d="M769.2,897.9c0,0-2.5-0.2-3.6-0.6c0,0-1.3-0.1,0.2,0.6C767.2,898.5,769.2,897.9,769.2,897.9z"/>
			<path class="st15" d="M768.4,899.5c0,0-2.5,0-3.6-0.3c0,0-1.3,0,0.2,0.5C766.4,900.2,768.4,899.5,768.4,899.5z"/>
			<path class="st15" d="M769.1,898.8c0,0-2.5-0.5-3.5-1.1c0,0-1.2-0.2,0.1,0.6S769.1,898.8,769.1,898.8z"/>
			<path class="st15" d="M768.9,899.4c0,0-2.5-0.4-3.5-0.9c0,0-1.2-0.2,0.1,0.6C766.9,899.8,768.9,899.4,768.9,899.4z"/>
			<path class="st15" d="M767.8,901.3c0,0-2.5-0.4-3.5-1c0,0-1.2-0.2,0.1,0.6C765.8,901.7,767.8,901.3,767.8,901.3z"/>
			<path class="st15" d="M768.1,900.5c0,0-2.5-0.3-3.5-0.8c0,0-1.2-0.1,0.2,0.6S768.1,900.5,768.1,900.5z"/>
			<path class="st15" d="M767,902.3c0,0-2.3-1-3.1-1.8c0,0-1.1-0.5,0,0.6C764.9,902.2,767,902.3,767,902.3z"/>
			<path class="st15" d="M766.6,903.1c0,0-2.3-1-3.1-1.8c0,0-1.1-0.5,0,0.6S766.6,903.1,766.6,903.1z"/>
			<path class="st15" d="M766.4,903.6c0,0-2.4-0.8-3.3-1.6c0,0-1.2-0.4,0,0.6C764.3,903.7,766.4,903.6,766.4,903.6z"/>
			<path class="st15" d="M766.3,904.2c0,0-2.4-0.8-3.3-1.6c0,0-1.2-0.4,0,0.6C764.3,904.2,766.3,904.2,766.3,904.2z"/>
			<path class="st15" d="M766,904.9c0,0-2.4-0.8-3.3-1.6c0,0-1.2-0.4,0,0.6C764,904.9,766,904.9,766,904.9z"/>
			<path class="st15" d="M765.1,906.4c0,0-2.3-0.9-3.2-1.6c0,0-1.2-0.4,0,0.6C763.1,906.3,765.1,906.4,765.1,906.4z"/>
			<path class="st15" d="M765.7,905.7c0,0-2.4-0.8-3.3-1.5c0,0-1.2-0.4,0,0.6C763.7,905.7,765.7,905.7,765.7,905.7z"/>
			<path class="st15" d="M765,907.1c0,0-2.4-0.7-3.4-1.3c0,0-1.2-0.3,0.1,0.6C763,907.2,765,907.1,765,907.1z"/>
			<path class="st15" d="M764.6,907.9c0,0-2.4-0.6-3.4-1.3c0,0-1.2-0.3,0.1,0.6S764.6,907.9,764.6,907.9z"/>
			<path class="st15" d="M764.3,908.5c0,0-2.5-0.4-3.5-1c0,0-1.2-0.2,0.1,0.6C762.3,908.8,764.3,908.5,764.3,908.5z"/>
			<path class="st15" d="M763.5,910.6c0,0-2.5-0.1-3.6-0.6c0,0-1.3-0.1,0.2,0.5C761.5,911.2,763.5,910.6,763.5,910.6z"/>
			<path class="st15" d="M764.2,909.3c0,0-2.4-0.7-3.3-1.4c0,0-1.2-0.4,0.1,0.6C762.2,909.4,764.2,909.3,764.2,909.3z"/>
			<path class="st15" d="M763.9,909.9c0,0-2.4-0.6-3.4-1.3c0,0-1.2-0.3,0.1,0.6C761.9,910.1,763.9,909.9,763.9,909.9z"/>
			<path class="st15" d="M763.1,913.2c0,0-2.2-1.2-2.9-2.1c0,0-1.1-0.6-0.1,0.6C761.1,912.8,763.1,913.2,763.1,913.2z"/>
			<path class="st15" d="M763.2,911.6c0,0-2.4-0.6-3.4-1.3c0,0-1.2-0.3,0.1,0.6C761.2,911.8,763.2,911.6,763.2,911.6z"/>
			<path class="st15" d="M762.8,913.9c0,0-2.3-1-3.1-1.9c0,0-1.1-0.5,0,0.6C760.8,913.7,762.8,913.9,762.8,913.9z"/>
			<path class="st15" d="M762.3,914.5c0,0-2.3-1.1-3.1-1.9c0,0-1.1-0.5,0,0.6S762.3,914.5,762.3,914.5z"/>
			<path class="st15" d="M762.2,914.5c0,0-2.5,0.1-3.6-0.3c0,0-1.3,0,0.2,0.5C760.3,915.2,762.2,914.5,762.2,914.5z"/>
			<path class="st15" d="M761.7,916.7c0,0-2.5,0.4-3.6,0.1c0,0-1.2,0.2,0.3,0.5S761.7,916.7,761.7,916.7z"/>
			<path class="st15" d="M762.2,915.3c0,0-2.5-0.2-3.6-0.8c0,0-1.2-0.1,0.2,0.6C760.2,915.8,762.2,915.3,762.2,915.3z"/>
			<path class="st15" d="M762,915.7c0,0-2.5,0.3-3.6,0.1c0,0-1.2,0.2,0.3,0.5S762,915.7,762,915.7z"/>
			<path class="st28" d="M761.3,918.4c0,0-2.5,0.1-3.6-0.2c0,0-1.3,0.1,0.2,0.5C759.4,919.2,761.3,918.4,761.3,918.4z"/>
			<path class="st15" d="M761.7,917.5c0,0-2.5,0.1-3.6-0.3c0,0-1.3,0.1,0.2,0.5C759.8,918.3,761.7,917.5,761.7,917.5z"/>
			<path class="st28" d="M761.5,919.1c0,0-2.5,0.3-3.6,0.1c0,0-1.2,0.2,0.3,0.5C759.7,920,761.5,919.1,761.5,919.1z"/>
			<path class="st28" d="M761.4,920c0,0-2.5,0.3-3.6,0c0,0-1.2,0.1,0.3,0.5C759.6,920.9,761.4,920,761.4,920z"/>
			<path class="st28" d="M760.5,919.6c0,0-2.3,0.9-3.5,1c0,0-1.2,0.5,0.4,0.4S760.5,919.6,760.5,919.6z"/>
			<path class="st28" d="M760.1,919.9c0,0-2,1.5-3.1,1.9c0,0-1,0.8,0.5,0.3S760.1,919.9,760.1,919.9z"/>
			<path class="st29" d="M848.3,887.7c-1.4-0.3-2.6-0.6-3.5-1c0,0-21.3-5.6-23.9-7.1c0,0-15.8-4.8-25.5-11.3
				c-10.1,6.1-20.3,36.5-23.1,45.4c5,1.2,18.8,5.7,30.5,9.9c8.3,3,19.8,8.5,27.7,12.4c2.2-21.1,14.1-42.3,17.6-48.1
				C848.3,887.9,848.3,887.8,848.3,887.7z"/>
			<path class="st15" d="M838.4,889.3c-1.1-0.2-2-0.5-2.7-0.8c0,0-16.6-4.4-18.6-5.5c0,0-12.3-3.7-19.9-8.8
				c-7.9,4.8-15.8,28.5-18,35.4c3.9,1,14.6,4.4,23.8,7.7c6.5,2.3,15.4,6.6,21.6,9.6c1.7-16.4,11-33,13.7-37.5
				C838.4,889.5,838.4,889.4,838.4,889.3z"/>
			
				<ellipse transform="matrix(0.2971 -0.9548 0.9548 0.2971 -291.9086 1403.507)" class="st29" cx="807.3" cy="900" rx="8.2" ry="14.8"/>
			
				<ellipse transform="matrix(0.2971 -0.9548 0.9548 0.2971 -291.8004 1403.546)" class="st15" cx="807.4" cy="900" rx="5.6" ry="10.2"/>
			<path class="st29" d="M814.5,902.3c0.1,0,0.1-0.1,0.1-0.2l0,0c-0.1-0.1-1.4-1.4-3.4-2h-0.1c0.5-0.3,0.9-0.7,1.1-1.1
				c0-0.1,0-0.2-0.2-0.2l0,0c-0.8-0.2-1.5-0.3-2.3-0.2v-0.1c0.4-1.2-0.8-2.7-0.8-2.7c-0.1-0.1-0.2-0.1-0.3-0.1l0,0
				c-0.1,0-1.8,0.6-2.2,1.8v0.1c-0.6-0.4-1.3-0.8-2-1c-0.1,0-0.3,0-0.3,0.1l0,0c-0.1,0.5,0,1,0.3,1.5h-0.1c-2-0.6-3.9-0.2-4-0.2
				s-0.1,0.1-0.1,0.2l0,0c0.1,0.1,1.4,1.4,3.4,2h0.1c-0.5,0.3-0.9,0.7-1.1,1.1c0,0.1,0,0.2,0.2,0.2l0,0l0,0c0.8,0.2,1.5,0.3,2.3,0.2
				v0.1c-0.4,1.2,0.8,2.7,0.8,2.7c0.1,0.1,0.2,0.1,0.3,0.1l0,0c0.1,0,1.8-0.6,2.2-1.8v-0.1c0.6,0.4,1.3,0.8,2,1l0,0
				c0.1,0,0.3,0,0.3-0.1l0,0c0.1-0.5,0-1-0.3-1.5h0.1C812.6,902.7,814.5,902.3,814.5,902.3L814.5,902.3z M814,902
				c-0.5,0.1-2,0.2-3.4-0.2c-0.8-0.2-1.5-0.5-2.2-0.9c0.2-0.1,0.3-0.2,0.4-0.3l2.7,0.8c0.1,0,0.3,0,0.3-0.1s-0.1-0.2-0.2-0.2
				l-2.7-0.8c0-0.2,0-0.3-0.1-0.5c0.8,0.1,1.6,0.2,2.3,0.5C812.5,900.7,813.6,901.6,814,902L814,902z M808.4,900.3
				c-0.1,0.4-0.7,0.5-1.3,0.3s-1-0.6-0.9-1s0.7-0.5,1.3-0.3S808.5,899.9,808.4,900.3 M811.5,898.9c-0.2,0.4-0.6,0.7-1.1,1
				c-0.5-0.1-1-0.2-1.5-0.3c0.2-0.2,0.4-0.5,0.5-0.8C810.1,898.7,810.8,898.7,811.5,898.9z M808.6,895.8c0.3,0.4,0.9,1.4,0.6,2.3
				c-0.1,0.5-0.4,0.9-0.8,1.3c-0.2-0.1-0.4-0.3-0.6-0.3l0.5-1.6c0-0.1-0.1-0.2-0.2-0.2s-0.3,0-0.3,0.1l-0.5,1.6
				c-0.2,0-0.5-0.1-0.7,0c-0.1-0.5-0.1-1,0.1-1.5C807,896.5,808.1,896,808.6,895.8z M804.4,896.7c0.7,0.3,1.3,0.6,1.8,1
				c-0.1,0.3-0.1,0.6,0,1c-0.4-0.2-0.9-0.4-1.4-0.6C804.5,897.6,804.4,897.2,804.4,896.7L804.4,896.7z M800.6,897.9
				c0.5-0.1,2-0.2,3.4,0.2c0.8,0.2,1.5,0.5,2.2,0.9c-0.2,0.1-0.3,0.2-0.4,0.3l-2.7-0.8c-0.1,0-0.3,0-0.3,0.1s0.1,0.2,0.2,0.2
				l2.7,0.8c0,0.2,0,0.3,0.1,0.5c-0.8-0.1-1.6-0.2-2.3-0.5C802.1,899.2,801,898.3,800.6,897.9z M803.1,901.1c0.2-0.4,0.6-0.7,1.1-1
				c0.5,0.1,1,0.2,1.5,0.3c-0.2,0.2-0.4,0.5-0.5,0.8C804.5,901.3,803.8,901.2,803.1,901.1L803.1,901.1z M806.1,904.1
				c-0.3-0.4-0.9-1.4-0.6-2.3c0.1-0.5,0.4-0.9,0.8-1.3c0.2,0.1,0.4,0.3,0.6,0.3l-0.5,1.6c0,0.1,0.1,0.2,0.2,0.2s0.3,0,0.3-0.1
				l0.5-1.6c0.2,0,0.5,0.1,0.7,0c0.1,0.5,0.1,1-0.1,1.5C807.6,903.4,806.5,903.9,806.1,904.1z M810.2,903.3c-0.7-0.3-1.3-0.6-1.8-1
				c0.1-0.3,0.1-0.6,0-1c0.4,0.2,0.9,0.4,1.4,0.6C810.1,902.3,810.3,902.8,810.2,903.3L810.2,903.3z"/>
		</g>
		<path class="st28" d="M759.3,918.2c0,0,42.9,10,80.9,30.3c0,0-0.1,3.5-0.2,4.8c-0.1,1.3-15.2-12.1-82.8-31.6
			C757.1,921.6,756.2,923.6,759.3,918.2z"/>
	</g>
</g>
<g>
	<circle class="st2" cx="131.6" cy="1002" r="64.5"/>
	<g>
		<path class="st22" d="M97.6,974.9c0,0,0.9-1.4,5-7.1c4.2-5.7,21.3-0.5,36.7-1.5c0,0,10.8-0.3,11.9-0.5c0,0,1.6,18.3-2.2,24.3
			c0,0,25.7,11.5,27.1,10.9c0,0-0.1,10.3-9.9,24.8c-9.7,14.5-19.4,17.2-19.4,17.2s-15.3-14.7-18.1-16.5c0,0-6.5,10.2-19.9,11
			c0,0-12-23-19.1-33.4c0,0-5.7-6.9-1.8-13.8l10.3-11.9L97.6,974.9z"/>
		<path class="st5" d="M89.1,985.5c0,0,2.8-2.1,4.4-4.6s1.4-6,1.4-6s1.2,1.2,4.9-3.8c0,0,2.4,5.5-1.8,12.2c0,0-2,4.7,3.5,11.6
			c0,0,3,6.9,3.3,9.5c0,0-3.3-2.6-4.3-3.3c0,0-2-5-7.1-13.2c0,0-3.6,2.9-5.2,2.4C88.1,990.3,89.5,987,89.1,985.5z"/>
		<path class="st5" d="M136.4,966.3c0,0,0.3,15-1.8,17.6c0,0,4.3,1.8,5,2.2c0,0,2.5-14.7,1.9-20
			C141.5,966.1,137.3,966.4,136.4,966.3z"/>
		<path class="st5" d="M102.4,1025c0,0,10.6-5.6,14-10.2c0,0,2.6,2.1,3.4,3.2c0,0-9.8,10-15.5,10.4
			C104.3,1028.3,102.4,1025.5,102.4,1025z"/>
		<path class="st5" d="M141.3,1037.5c0,0,8.6-1.9,18.2-17s8.5-22.7,8.5-22.7s8.3,3.3,8.1,2.7c0,0-0.3,10.7-9.1,23.9
			c-6.9,10.3-14.9,17.5-20.4,18.5C146.7,1043,143.4,1040,141.3,1037.5z"/>
		<path class="st5" d="M102,968.5c0,0,3.7,5.8,0.4,15.6c0,0-1.5,1.5-0.4,3.7s5.6,14.4,4.8,18.8c0,0-0.6-8.3-1.9-12.5s-3-6.9-2.9-7.8
			s0.5-1.6,0.8-2s2.6-10.2,0.5-14l-0.6-1.4c-0.5-0.8-0.5-0.8-0.5-0.8L102,968.5z"/>
		<path class="st5" d="M87.6,991c0,0,4.8-0.4,6.3-2.4l0.5,0.3c0,0-3.4,2.3-7,2.4L87.6,991z"/>
		<path class="st5" d="M138.4,1034.7c0,0,9.6-5.2,16.9-17.4c7.3-12.1,8.4-21.1,8.4-21.1l1.1,0.1c0,0-2.5,10.1-8.7,21.4
			s-15.7,16.6-17,17.2L138.4,1034.7z"/>
		<path class="st5" d="M165.4,996.7c0,0-1.2,11.2-9.1,22.9c-8,11.7-16.5,16.5-16.5,16.5l0.4,0.2c0,0,9.2-5.8,16.8-16.2
			s9.1-21.5,9.1-22.9L165.4,996.7z"/>
		<path class="st5" d="M103.2,967.3c5.2,10.5-1.7,18.3,1.3,22.6c1.6,4,4.7,13.9,4,17.8c0,0-0.4-7.7-1.5-12.2c-0.8-3.4-2.5-6.2-2.9-8
			c-0.6-2.5,3.5-14.2-0.6-20.6C103.2,966.7,103.6,966.8,103.2,967.3z"/>
		<path class="st5" d="M87.3,992.2c0,0,5.7-0.8,7.2-2.8l0.4,0.2c0,0-4.2,2.7-7.8,2.9L87.3,992.2z"/>
		<path class="st15" d="M113.2,974.2c0,0,29.5,13.4,35.7,15.9c6.3,2.5-8-2.1-16-5.8C124.8,980.6,117.4,976.9,113.2,974.2z"/>
		<path class="st15" d="M141.5,966.1c0,0,8.4-0.1,9.6-0.3c1.1-0.3,1.7,19.8-1.8,24.5l-9.7-4.2C139.6,986.1,142.1,971.4,141.5,966.1z
			"/>
		<path class="st30" d="M141.9,962.4"/>
		<path class="st15" d="M104.3,1028.3c0,0,7.2-1.3,15.5-10.4l9.4,8.5c0,0-7.4,10.1-19.9,11C109.4,1037.4,106.2,1031.4,104.3,1028.3z
			"/>
	</g>
</g>
<g>
	<g>
		
			<linearGradient id="SVGID_7_" gradientUnits="userSpaceOnUse" x1="1914.4255" y1="3157.9998" x2="2187.0317" y2="3157.9998" gradientTransform="matrix(-0.7828 0.6223 -0.6223 -0.7828 3764.7339 1836.2139)">
			<stop  offset="0" style="stop-color:#FBF3EB"/>
			<stop  offset="1" style="stop-color:#FAEECC"/>
		</linearGradient>
		<circle class="st31" cx="194.2" cy="640.3" r="136.3"/>
	</g>
	<g>
		<g>
			<path class="st5" d="M202.2,729.7c0,0-1.5,0-1.8,0.3c-0.4,0.3-21-47.1-45.6-53.4c0,0-3.7-0.7-26.8-4.6c0,0-32.8-36.6-35-38
				c0,0,40.6-41.8,61.1-54.4c20.6-12.6,52.2-33.1,81.4-36.8l2.3,110.9l26,39.4l-4.9,12.3c0,0-7.2-3.7-17.4,2.7
				c-10.1,6.5-9.4,15.9-9.4,15.9l-28-0.8L202.2,729.7z"/>
			<path class="st32" d="M279,680.8c0,0-18.7,22.8-19.2,24.2c0,0-8.6-2.2-18,3.2s-10.1,15.9-10.1,15.9s-21.8,3.7-30.2,5.7
				c0,0-11-45.6-48.2-58c0,0-22.5-1.1-24.9,0.4c0,0-30.4-36.9-32.1-37.7c-1.6-0.8,51.9-48.7,56.3-48.4c4.4,0.2,20.6,30.2,20.6,30.2
				s55.2,82,55.3,84.1s0,20.6,1.8,22.2c0,0,0-7.9,2.9-10.2s9.1-10.4,18.7-10.1c0,0,4.9,0.3,5.2,0.6c0.3,0.4-0.3-0.4-0.3-0.4
				s-16.8-9.2-20.1-9.3s-75.9-110.8-77-112.1c-1-1.3-0.1-2.1,7.4-5.9c7.5-3.8,30.4-22,57.2-25.5c0,0,5.6,0.4,9.1-5.7
				c0,0,0.4-0.8,1.8-1c1.5-0.1,5.3,20.6,18.1,44.6c0,0-27,11-7,56.1C246.6,643.6,256.3,666.4,279,680.8z"/>
			<path class="st30" d="M253.1,701.6c0,0-8.1-0.4-13.3,3.7c-5.2,4.1-9,9.2-9,9.2s-0.3-8.2,6.4-12.5
				C243.9,697.8,251.1,701.1,253.1,701.6z"/>
			<path class="st30" d="M203.1,652.2l4-14.8l5.2-10l-6.3-11.9l-0.8-5.7l-8.3-6.5l-2.3,1.8c0,0-7.8-1.3-11.7,5.7
				c0,0-10.6,3.2-16.2,10.8c-5.6,7.6-4,6.4-4,6.4l-0.9,10.7l9.2,11.6l8.3,9.1l7.5-6.5L203.1,652.2z"/>
			<path class="st15" d="M273.4,687.6c0,0-18.4-10.7-30.6-11c0,0-27.5-36.6-29.6-41.8c0,0-2.4-2.3-2.3,1.8c0,0-6.2,16-6.1,17.5
				c0.1,1.5,1.9,3.7,2.5,1.7c0,0-0.1,3.2-2.3,1.8s-2.4-2.3-2.4-2.3s-14.1,0.2-16.4,0.5c0,0-2.6,1.5,1.8,6.9
				c4.4,5.5,24.6,36.3,24.6,36.8s-5.7,24.8-4.1,28.7l-6,1.6c0,0-2.7-16.7,2.2-29.1c0,0-23-42.8-60.9-44.8c0,0-14.3,1.3-15.3,2.6
				c-1,1.4-3.1,9.3-2.8,10c0.2,0.6,0.5,0.4,0.5,0.4l-5.7-6.4c0,0,2.6-8.6,2.2-9.9c-0.5-1.2-10.1-12.6-10.1-12.6s4.8-5.3,10.5-10
				c5.8-4.7,21.9-22.7,25-23.6c3.1-0.8,8.7,11,11.5,15.1c2.7,4.1,3.9,4.3,3.9,4.3s-1.5,2.7-1.5,5.4s-0.4,8.1,11.1,11.2
				c0,0-2.6,6.8,3.9,9s7.8-4.1,7.8-4.1s-0.1,3.2,5,2.4c0,0,4.8-3.3,7.6-1.7c2.7,1.5,5.1-1.5,5.1-1.5s-2.6,2-2.5,0.9
				c0.1-1.2-0.7-3.6,2.8-7c3.7-3.4,3.6-8.1,3.6-8.1s5.2-4.1,2.2-9.1c-2.9-5-6.2-2.5-6.2-2.5s4.6-8.9-2.4-12.9
				c-6.9-4-7.9-2.6-7.9-2.6s-10.3-15-11.5-17.2c0,0-3.2-2.7,0.2-4.4c3.4-1.6,38.9-17.3,43-20c0,0,7.1,14.3,9.1,15.4
				c0,0,13.8,0.6,17.2,1.9l3.3,6.6c0,0-15.6-1.8-17.9,0c-2.3,1.8-19.4,20.6-3.3,57.5c0,0,7.9,18.5,14.4,25.4c0,0,14.1-0.2,27.7,9.6
				c0,0,2.1,1.6,2.9,2.5L273.4,687.6z"/>
			<path class="st5" d="M218.9,629.4c0,0-4.8-24,7-46.1c0,0-4.3-8.7-4.8-8.8s-13.6,3.5-30.3,13.5c0,0,3.7,6.6,6.8,10.4
				c0,0,7.1-0.4,11.5,7.2c4.4,7.6,2,10.5,2,10.5s3.7,3.4,4.5,4.3C216.2,621.4,216.8,627.3,218.9,629.4z"/>
			<path class="st5" d="M168.5,654.1c0,0-3.6-5.1-2.3-8.2c0,0-7.4,0.6-10.1-6.1c-2.7-6.8-0.6-9.5-0.6-9.5s-4.7-5.2-5-7
				c-0.4-1.8-2-5.2-2.6-5.3c-0.5-0.1-20.4,19.4-23.5,22.8c0,0,5.5,8.9,7.7,9.7C131.9,650.5,144.4,644.3,168.5,654.1z"/>
		</g>
		<path class="st5" d="M259.8,705c0,0-18.5-12.1-22.7-12c0,0,4.4-15.6,5.9-16.4c1.6-0.7,19.5,4,30.4,11.1L259.8,705z"/>
		<path class="st32" d="M259.8,705c0,0-15.9-9.4-16.7-9.9c-0.8-0.4,3.8-10.4,6.6-11.6c2.7-1.2,18.4,7.8,20.2,8.9L259.8,705z"/>
		<path class="st5" d="M231.8,724.1c0,0-3.4-2.4-3.3-14.4c0.1-12.1-0.2-9.1-0.2-9.1s-15.3-2-15.8-0.6s-5.7,24-4.1,28.6L231.8,724.1z
			"/>
		<path class="st32" d="M231.8,724.1c0,0-4.3-15.3-3.3-17.7c1-2.5-11.5-1.6-12.3,0.7s-2.6,12.4-0.6,19.9L231.8,724.1z"/>
	</g>
</g>
<g>
	<circle class="st7" cx="353" cy="896.9" r="93"/>
	<g>
		<g>
			<path class="st22" d="M414.7,900.5c0,0,0,1,0.1,1.2s-33.2,10.3-39.4,26.2c0,0-0.8,2.4-5.2,17.6c0,0-27.2,19-28.3,20.4
				c0,0-24.7-30.6-31.4-45.3c-6.8-14.7-17.9-37.7-18.1-57.5l74.5,7.4l28.5-14.3l7.8,4.3c0,0-3.1,4.5,0.5,11.8
				c3.5,7.3,9.9,7.7,9.9,7.7l-2.9,18.8L414.7,900.5z"/>
			<path class="st15" d="M388.2,845.1c0,0,13.8,14.4,14.6,14.8c0,0-2.1,5.5,0.7,12.3c2.9,6.8,9.9,8,9.9,8s0.7,15,1.3,20.8
				c0,0-31.4,3.6-42.8,27.6c0,0-2.6,15-1.8,16.8c0,0-27.2,17.4-27.8,18.5c-0.6,1-28.4-38.8-27.9-41.6c0.4-2.8,21.9-11.3,21.9-11.3
				s59.4-30.3,60.8-30.2s13.8,1.6,15.1,0.6c0,0-5.3-0.6-6.7-2.8c-1.3-2.1-6.2-7-5.3-13.4c0,0,0.6-3.3,0.8-3.5
				c0.2-0.1-0.2,0.1-0.2,0.1s-7.5,10.5-7.9,12.7c-0.4,2.1-80.4,42-81.4,42.6s-1.4-0.1-3.3-5.4c-1.9-5.3-12.3-22.2-12.4-40.4
				c0,0,0.7-3.6-3.1-6.6c0,0-0.5-0.4-0.5-1.4s14.2-1.9,31.4-8.5c0,0,5.2,19,37.1,9.3C360.7,863.8,376.8,859.1,388.2,845.1z"/>
			<path class="st30" d="M400.1,864c0,0-0.9,5.5,1.4,9.2c2.3,3.8,5.5,6.8,5.5,6.8s-5.5-0.5-7.8-5.3C396.9,870,399.6,865.4,400.1,864
				z"/>
			<path class="st30" d="M362.9,893.6l-9.6-3.9l-6.3-4.4l-8.4,3.3l-3.9,0.1l-5,5.1l1.1,1.7c0,0-1.4,5.1,2.9,8.4c0,0,1.3,7.3,6,11.7
				s4,3.2,4,3.2l7.1,1.4l8.5-5.3l6.8-4.9l-3.7-5.5L362.9,893.6z"/>
			<path class="st29" d="M392.4,849.3c0,0-8.7,11.4-9.8,19.7c0,0-26.8,15.5-30.4,16.4c0,0-1.7,1.4,1,1.6c0,0,10.2,5.4,11.2,5.5
				s2.7-0.9,1.3-1.5c0,0,2.1,0.3,1,1.6c-1.1,1.4-1.7,1.4-1.7,1.4s-1.1,9.5-1,11.1c0,0,0.8,1.8,4.8-0.7c4.1-2.5,26.3-13.6,26.7-13.5
				c0.4,0.1,16.1,5.8,18.9,5.1l0.5,4.2c0,0-11.5,0.5-19.3-3.8c0,0-30.6,11.9-35,37.2c0,0-0.3,9.6,0.6,10.5c0.8,0.9,6,2.8,6.5,2.7
				c0.4-0.1,0.3-0.3,0.3-0.3l-4.7,3.3c0,0-5.5-2.5-6.4-2.2c-0.9,0.2-9.2,5.7-9.2,5.7s-3.2-3.6-5.8-7.9c-2.6-4.3-13.4-16.6-13.8-18.7
				c-0.3-2.1,8-5,11.1-6.5c3-1.5,3.2-2.3,3.2-2.3s1.8,1.2,3.5,1.4c1.8,0.2,5.5,0.9,8.5-6.5c0,0,4.3,2.3,6.3-2c2-4.2-2.1-5.6-2.1-5.6
				s2.1,0.3,1.9-3.2c0,0-1.8-3.5-0.6-5.2c1.2-1.8-0.6-3.6-0.6-3.6s1.2,1.9,0.4,1.7c-0.8-0.2-2.5,0.2-4.4-2.5c-2-2.7-5.2-3-5.2-3
				s-2.3-3.8-5.9-2.3c-3.6,1.6-2.2,3.9-2.2,3.9s-5.6-3.8-8.8,0.5c-3.2,4.3-2.4,5-2.4,5s-10.9,5.7-12.5,6.4c0,0-2.1,1.9-2.9-0.5
				s-8.4-27.5-9.9-30.5c0,0,10.2-3.7,11.1-4.8c0,0,1.6-9.2,2.7-11.4l4.6-1.7c0,0-2.4,10.3-1.4,12c1,1.6,12.3,14.6,38.2,6.9
				c0,0,13-3.7,18.2-7.6c0,0,1.1-9.5,8.7-17.8c0,0,1.1-1.3,1.9-1.7L392.4,849.3z"/>
			<path class="st22" d="M348.9,881.2c0,0-16.6,1.3-30.4-8.4c0,0-6.2,2.1-6.3,2.5c-0.1,0.4,1.2,9.3,6.6,21.4c0,0,4.7-2,7.5-3.6
				c0,0,0.3-4.8,5.7-7.1c5.4-2.4,7.2-0.5,7.2-0.5s2.6-2.2,3.3-2.7C343.3,882.3,347.3,882.5,348.9,881.2z"/>
			<path class="st22" d="M361.4,917c0,0-3.7,1.9-5.7,0.9c0,0-0.2,5-5,6.3c-4.7,1.3-6.4-0.3-6.4-0.3s-3.9,2.7-5.2,2.8
				c-1.2,0.1-3.7,0.9-3.7,1.3c-0.1,0.4,11.4,15.3,13.4,17.6c0,0,6.3-3,7.1-4.4C356,941.2,352.8,932.4,361.4,917z"/>
		</g>
		<path class="st22" d="M402.9,859.9c0,0-9.6,11.4-9.8,14.3c0,0-10.1-4.2-10.5-5.3s4.2-12.8,9.9-19.5L402.9,859.9z"/>
		<path class="st15" d="M402.9,859.9c0,0-7.7,9.9-7.9,10.5c-0.3,0.5-6.7-3.4-7.2-5.3c-0.5-2,6.7-11.7,7.5-12.8L402.9,859.9z"/>
		<path class="st22" d="M413.4,880.2c0,0-1.9,2.1-10,1.1c-8.1-1.1-6.1-0.6-6.1-0.6s-2.6,10.1-1.7,10.5s15.6,5.7,18.8,5.1
			L413.4,880.2z"/>
		<path class="st15" d="M413.4,880.2c0,0-10.6,1.6-12.2,0.8c-1.5-0.8-2,7.6-0.5,8.3c1.4,0.7,8.2,2.7,13.3,2.1L413.4,880.2z"/>
	</g>
</g>
<g>
	<g>
		<circle class="st2" cx="786.8" cy="189.8" r="123.9"/>
	</g>
	<g>
		<g>
			<path class="st5" d="M840,114.6c0,0,1.2,0.9,1.5,0.9c0.4,0-12.7,49.3,2.4,69.3c0,0,2.4,2.9,18,20c0,0,2.9,48.5,3.7,51
				c0,0-57.1,7.3-80.8,4.5c-23.7-2.9-60.7-6.5-85.7-21.6l66.5-87.3l4.1-46.5l11.4-6.5c0,0,3.3,7.3,15.1,8.6
				c11.8,1.3,17.2-6.5,17.2-6.5l21.2,18L840,114.6z"/>
			<path class="st7" d="M750.3,105.1c0,0,28.6-6.1,29.7-7c0,0,5.3,7,15.9,8.6c10.6,1.6,17.5-6.1,17.5-6.1s19.2,10.6,26.9,14.3
				c0,0-19.6,42,1.6,74.7c0,0,16.7,14.6,19.6,15.1c0,0,0.8,47.3,1.6,49c0.8,1.6-70.1,5.7-73.4,2.9c-3.3-2.8,2.6-36.1,2.6-36.1
				s7.8-97.5,8.9-99.1s12.7-15.9,12.2-18.3c0,0-4.9,6.1-8.6,6.1s-13.5,2.4-20.8-3.7c0,0-3.7-3.3-3.7-3.7c0-0.5,0,0.5,0,0.5
				s7.3,17.5,9.8,19.6c2.4,2.1-9.4,132.6-9.4,134.2c0,1.6-1.3,1.6-9.4,0s-37.1-1.6-59.9-15.5c0,0-4.1-3.7-10.6-1.3
				c0,0-0.8,0.5-2.1-0.5c-1.3-0.9,8.6-19.2,13.5-45.6c0,0,27.7,8.1,39.9-39.1C752.6,153.8,759.1,130.2,750.3,105.1z"/>
			<path class="st33" d="M783.2,104.9c0,0,6.1,5.3,12.7,5.3s12.7-1.6,12.7-1.6s-4.9,6.5-12.7,5.7
				C788.1,113.4,784.4,106.5,783.2,104.9z"/>
			<path class="st33" d="M791.5,174.1l-12.2,8.9l-10.2,4.5l-2.4,13l-2.9,4.9l2.4,10.2h3c0,0,5.2,5.7,12.6,2.9c0,0,10.2,4.1,19.2,1.6
				c8.9-2.4,7-2.4,7-2.4l7.2-7.7v-14.6l-0.8-12.2l-9.8,0.5L791.5,174.1z"/>
			<path class="st34" d="M758.9,103.2c0,0,7.6,19.6,17,27.4c0,0-1.3,45.3-2.9,50.6c0,0,0.5,3.3,2.9,0c0,0,14.6-8.6,15.5-9.8
				c0.8-1.3,0.8-4.1-0.8-2.9c0,0,2.1-2.4,2.9,0s0.5,3.3,0.5,3.3s11,8.6,13,9.8c0,0,2.9,0.5,2.9-6.5s3.3-43.2,3.7-43.7
				c0.5-0.5,19.7-15.7,20.9-19.7l5.7,2.5c0,0-8.1,14.6-19.6,21.2c0,0-8.6,47.3,19.6,72.2c0,0,11.8,7.8,13.5,7.3
				c1.6-0.5,8.1-5.3,8.3-6c0.2-0.6-0.2-0.6-0.2-0.6l0.4,8.4c0,0-7.3,5.1-7.8,6.2s0,15.9,0,15.9s-7,1.3-14.3,1.3s-31,4.1-33.9,2.9
				c-2.9-1.3,0-13.8,0.5-18.8c0.5-4.9-0.5-5.7-0.5-5.7s2.9-1.3,4.5-3.3c1.6-2.1,5.3-6.1-1.6-15.5c0,0,6.1-3.7,2.4-9.4
				s-8.6-1.6-8.6-1.6s2.1-2.4-2.4-4.9c0,0-5.7-0.5-7-3.3s-4.9-2.1-4.9-2.1s3.3,0,2.4,0.8c-0.8,0.8-1.6,3.3-6.5,3.7
				c-4.9,0.5-7.8,4.1-7.8,4.1s-6.5,0-7.3,5.7s3.3,5.7,3.3,5.7s-8.9,4.1-6.1,11.4c2.9,7.3,4.5,7,4.5,7s-1.3,18-1.6,20.4
				c0,0,0.8,4.1-2.9,3.3s-40.8-10.6-45.6-11c0,0,3.3-15.5,2.4-17.5c0,0-10.3-9-12.1-12l1.4-7.1c0,0,11,11,13.8,11
				c2.9,0,27.7-4.1,38-42.4c0,0,5.3-19.2,4.5-28.6c0,0-11-8.6-15.5-24.5c0,0-0.7-2.4-0.7-3.7L758.9,103.2z"/>
			<path class="st5" d="M765.2,182c0,0-11,21.6-33.9,31.4c0,0-2.1,9.4-1.6,9.8c0.5,0.5,12.7,5.7,31.8,8.1c0,0,1.3-7.3,1.3-12.2
				c0,0-5.7-4.1-4.5-12.7c1.3-8.6,4.9-9.4,4.9-9.4s-0.8-4.9-0.8-6.1C762.3,189.7,765.7,184.8,765.2,182z"/>
			<path class="st5" d="M819.5,193.9c0,0-0.5,6.1-3.3,7.8c0,0,6.1,4.1,4.1,11c-2.1,7-5.3,7.8-5.3,7.8s0.5,7-0.5,8.6
				c-0.8,1.6-1.6,5.3-1.3,5.7c0.5,0.5,27.7-2.4,32.3-3.3c0,0,1.3-10.2,0-12.2C845.6,219.1,832.1,216.3,819.5,193.9z"/>
		</g>
		<path class="st5" d="M780.1,98.1c0,0,7,20.8,10.2,23.2c0,0-13,9.4-14.6,8.9S763,115.1,759,102.9L780.1,98.1z"/>
		<path class="st7" d="M780.1,98.1c0,0,6.5,17.1,7,17.9s-9.4,5.7-12.2,4.9c-2.9-0.8-9.4-17.4-10.2-19.3L780.1,98.1z"/>
		<path class="st5" d="M813.6,100.6c0,0,1.1,4-6.4,13.2s-5.4,7.2-5.4,7.2s10.6,11,11.8,10.2c1.3-0.8,19.2-15.1,20.8-19.6
			L813.6,100.6z"/>
		<path class="st7" d="M813.6,100.6c0,0-6.1,14.5-8.3,15.8c-2.3,1.4,8,8.2,9.9,7c2.1-1.3,9.6-8,12.7-15L813.6,100.6z"/>
	</g>
</g>
<g>
	<circle class="st7" cx="260.1" cy="261.1" r="220"/>
	<g>
		<path class="st32" d="M346.9,113c0,0,6.3,2.9,32.3,16.7s14.2,87.5,27.2,150.6c0,0,7.3,44.3,9,48.9c0,0-74.6,17.2-101.4,5
			c0,0-32.6,112.7-29.4,118c0,0-42.5,5.3-107.9-26.6s-82.2-70.1-82.2-70.1s51.9-71.5,57.6-84.1c0,0-45.7-20.9-56.8-75.6
			c0,0,87.8-62.6,126.9-98.1c0,0,25-27.6,55.7-15.4L333,118L346.9,113z"/>
		<path class="st5" d="M298.2,84.1c0,0,10.4,10.5,21.5,15.6c11,5.1,25.7,2.2,25.7,2.2s-4.5,5.6,18.4,18c0,0-21.3,13.1-51.2-0.6
			c0,0-20.3-5.5-45.8,20.9c0,0-26.6,16.4-37.3,19.1c0,0,8.8-15,11-19.7c0,0,19.4-11.1,50.3-37c0,0-14-13.1-12.7-20.1
			C278,82.4,292.5,86.2,298.2,84.1z"/>
		<path class="st5" d="M404.4,268.1c0,0-61.7,9.8-73.6,2.5c0,0-4.8,18.8-6.2,21.9c0,0,62.1,1.8,83.6-3.6
			C408.2,288.9,404.5,271.9,404.4,268.1z"/>
		<path class="st5" d="M143,161.1c0,0,29,40.4,50.3,52c0,0-7.4,11.9-11.1,15.9c0,0-46.9-34.9-51.6-57.9
			C130.6,171.1,141,161.7,143,161.1z"/>
		<path class="st5" d="M113.5,329c0,0,12.8,34.5,80.5,65.5s98.4,22.3,98.4,22.3s-8.9,36-6.6,35.1c0,0-44.2,5-103.8-23.7
			c-46.6-22.4-80.9-51.5-87.8-73.7C94.2,354.5,104.5,338.9,113.5,329z"/>
		<path class="st5" d="M375.6,127.2c0,0-21.9,18.6-64,10.7c0,0-7.2-5.2-15.5,0.5s-56.3,31.4-74.9,30.4c0,0,33.9-7.3,50.7-14.9
			c16.8-7.5,26.6-16.4,30.4-16.5c3.9-0.1,7,1.3,8.6,2s43.6,4.7,57.9-5.8l5.3-3.3c3-2.4,3-2.4,3-2.4L375.6,127.2z"/>
		<path class="st5" d="M274.9,81c0,0,4.4,19.5,13.6,24.5l-1,2.2c0,0-11.3-12.8-14.1-27.4L274.9,81z"/>
		<path class="st5" d="M123.7,315.2c0,0,27,36.6,81.3,59.6s91.7,22.5,91.7,22.5l0.1,4.4c0,0-43-4.6-93.3-23.8
			c-50.3-19.2-77.4-55.5-80.9-60.4L123.7,315.2z"/>
		<path class="st5" d="M295.9,405.1c0,0-47.1,1.5-99.9-24.6s-77.3-58.6-77.3-58.6l-0.7,1.6c0,0,29.2,34.6,76.6,60.2
			c47.4,25.5,93.9,25.2,99.9,24.6L295.9,405.1z"/>
		<path class="st5" d="M381.2,131.7c-40.3,27.3-76.6,3.3-92.5,18.2c-15.6,9-54.6,27.5-71.1,26.8c0.1,0,31.4-6,49.2-13.2
			c13.6-5.3,24.2-14,31.1-16.6c10.1-3.8,60.4,6.2,84.8-14.5C383.7,131.4,383.5,132.9,381.2,131.7z"/>
		<path class="st5" d="M269.4,80.4c0,0,6.6,23.2,15.7,28.2l-0.7,1.6c0,0-13.7-15.8-16.5-30.5L269.4,80.4z"/>
		<path class="st15" d="M358.7,176.6c0,0-38.3,129.2-45.1,156.6c-6.8,27.4,4.3-34.3,14.7-69.5C338.7,228.4,350,195.5,358.7,176.6z"
			/>
		<path class="st30" d="M408.2,288.9c0,0,5,34.7,6.8,39.3c1.7,4.6-80.8,18.2-102.1,6.5l11.8-42.3
			C324.6,292.5,386.7,294.3,408.2,288.9z"/>
		<path class="st30" d="M423.7,288.4"/>
		<path class="st30" d="M130.6,171.1c0,0,9.5,29.1,51.6,57.9l-29.5,43.6c0,0-45.8-24.8-56.8-75.6
			C95.8,197.1,118.5,180.8,130.6,171.1z"/>
	</g>
</g>
<g>
	
		<linearGradient id="SVGID_8_" gradientUnits="userSpaceOnUse" x1="543.6425" y1="1198.9038" x2="222.8123" y2="878.0735" gradientTransform="matrix(0.5 0.866 -0.866 0.5 1289.1176 -326.8193)">
		<stop  offset="0" style="stop-color:#FBF3EB"/>
		<stop  offset="1" style="stop-color:#BCECFF"/>
	</linearGradient>
	<circle class="st35" cx="581.4" cy="524.3" r="226.8"/>
	<g>
		<g>
			<g>
				
					<linearGradient id="SVGID_9_" gradientUnits="userSpaceOnUse" x1="491.9975" y1="228.6076" x2="819.1923" y2="228.6076" gradientTransform="matrix(0.9972 -7.527682e-02 7.527682e-02 0.9972 -96.0776 345.8084)">
					<stop  offset="0" style="stop-color:#0F2A40"/>
					<stop  offset="1" style="stop-color:#2A3C42"/>
				</linearGradient>
				<path class="st36" d="M552.1,440.5c0,0-80.7,27.4-125.8,21.1c0,0-33.5-0.9-13,17.5c0,0,12.8,12.8,14.6,26.6
					c1.8,13.8,4.7,45.4,10.9,50.2c0,0,6.1,8.2,7.2,13c1,4.8-0.2,25.2,0.1,40c0.3,14.8,3,26.4,2.3,32.9s-2.4,8.2-4.8,14.8
					c-2.4,6.5,1.5,8,4.9,8s5.1,0,5.1,0l92.9-40.6L697,586.2l46.2-5.6l-8-24.2l-36.9-106.2l3.5-54.9c0,0,3.4-8.5,1.4-11.3
					c-2-2.7-42.3,20.1-59.6,24.6C643.6,408.7,563.4,439.3,552.1,440.5z"/>
				<path class="st37" d="M709,512.4c0,0-38.1-97.2-4.9-124.8c0,0-0.9,7.1-1.6,13.7c-0.7,6.5-0.4,29.9,3.9,44.5
					c4.3,14.6,3.6,22.9,4.8,26.5s11.8,32.1,17.3,43.5c5.5,11.3,12.1,36.6,20.2,50.5c0,0,2.7,4.8,4.8,7.5s9,13.6-5.8,16.9
					c-15,3.2-102.4,15.7-153.1,30.2c-50.7,14.6-110.1,33.6-123,39.6c-12.8,6-21,5.8-22.7,5.8s20.7-27.4,64.9-37
					c0,0,77.3-23.9,122.2-40.6c44.9-16.6,81.2-20.7,101.5-16.5C737.4,572.1,720,547.5,709,512.4z"/>
			</g>
			<path class="st2" d="M655.9,402.7c-5,2.1-9.5,3.8-13.1,4.8c0,0-80.2,30.6-91.5,31.8c0,0-60.8,20.6-106.3,21.9
				c-18.1,42.8,19,163,30.4,197.8c18.6-7.4,72.4-24.6,118.8-37.8c33.1-9.4,81.9-18,115.9-23.7c-41.2-72.2-51.8-167.3-54-193.7
				C656,403.3,656,403,655.9,402.7z"/>
			
				<linearGradient id="SVGID_10_" gradientUnits="userSpaceOnUse" x1="654.4874" y1="165.3222" x2="664.8767" y2="165.3222" gradientTransform="matrix(1 0 0 1 0 236)">
				<stop  offset="0" style="stop-color:#FBF3EB"/>
				<stop  offset="1" style="stop-color:#FAEECC"/>
			</linearGradient>
			<path class="st38" d="M654.5,403.7c0,0,6.5-2.4,8.9-4.5c0,0,3.2-1.2-0.1,1.6C660.1,403.6,654.5,403.7,654.5,403.7z"/>
			
				<linearGradient id="SVGID_11_" gradientUnits="userSpaceOnUse" x1="655.4327" y1="167.4222" x2="665.822" y2="167.4222" gradientTransform="matrix(1 0 0 1 0 236)">
				<stop  offset="0" style="stop-color:#FBF3EB"/>
				<stop  offset="1" style="stop-color:#FAEECC"/>
			</linearGradient>
			<path class="st39" d="M655.5,405.8c0,0,6.5-2.4,8.9-4.5c0,0,3.2-1.2-0.1,1.6C661.1,405.7,655.5,405.8,655.5,405.8z"/>
			
				<linearGradient id="SVGID_12_" gradientUnits="userSpaceOnUse" x1="655.9538" y1="169.4322" x2="666.6845" y2="169.4322" gradientTransform="matrix(1 0 0 1 0 236)">
				<stop  offset="0" style="stop-color:#FBF3EB"/>
				<stop  offset="1" style="stop-color:#FAEECC"/>
			</linearGradient>
			<path class="st40" d="M656,407.4c0,0,6.6-1.9,9.3-3.8c0,0,3.3-0.9-0.2,1.6C661.6,407.8,656,407.4,656,407.4z"/>
			
				<linearGradient id="SVGID_13_" gradientUnits="userSpaceOnUse" x1="657.2369" y1="179.0602" x2="668.5914" y2="179.0602" gradientTransform="matrix(1 0 0 1 0 236)">
				<stop  offset="0" style="stop-color:#FBF3EB"/>
				<stop  offset="1" style="stop-color:#FAEECC"/>
			</linearGradient>
			<path class="st41" d="M657.3,415.1c0,0,6.9,0,9.9-1.1c0,0,3.4,0-0.6,1.5C662.6,417.1,657.3,415.1,657.3,415.1z"/>
			
				<linearGradient id="SVGID_14_" gradientUnits="userSpaceOnUse" x1="656.5527" y1="177.1123" x2="667.9185" y2="177.1123" gradientTransform="matrix(1 0 0 1 0 236)">
				<stop  offset="0" style="stop-color:#FBF3EB"/>
				<stop  offset="1" style="stop-color:#FAEECC"/>
			</linearGradient>
			<path class="st42" d="M656.6,412.8c0,0,6.9,0.4,10-0.6c0,0,3.4,0.2-0.7,1.4C661.7,414.9,656.6,412.8,656.6,412.8z"/>
			
				<linearGradient id="SVGID_15_" gradientUnits="userSpaceOnUse" x1="656.0516" y1="171.0268" x2="666.7822" y2="171.0268" gradientTransform="matrix(1 0 0 1 0 236)">
				<stop  offset="0" style="stop-color:#FBF3EB"/>
				<stop  offset="1" style="stop-color:#FAEECC"/>
			</linearGradient>
			<path class="st43" d="M656.1,409c0,0,6.6-1.9,9.3-3.8c0,0,3.3-0.9-0.2,1.6C661.7,409.3,656.1,409,656.1,409z"/>
			
				<linearGradient id="SVGID_16_" gradientUnits="userSpaceOnUse" x1="656.7341" y1="173.0268" x2="667.4647" y2="173.0268" gradientTransform="matrix(1 0 0 1 0 236)">
				<stop  offset="0" style="stop-color:#FBF3EB"/>
				<stop  offset="1" style="stop-color:#FAEECC"/>
			</linearGradient>
			<path class="st44" d="M656.8,411c0,0,6.6-1.9,9.3-3.8c0,0,3.3-0.9-0.2,1.6C662.4,411.3,656.8,411,656.8,411z"/>
			<path class="st2" d="M656.8,417.2c0,0,6.9,0.6,10-0.2c0,0,3.4,0.3-0.7,1.4C662,419.5,656.8,417.2,656.8,417.2z"/>
			<path class="st2" d="M657.3,419.6c0,0,6.9,0.5,10-0.4c0,0,3.4,0.2-0.7,1.4C662.4,421.8,657.3,419.6,657.3,419.6z"/>
			<path class="st2" d="M657.6,421.3c0,0,6.8,1,10,0.3c0,0,3.4,0.5-0.8,1.4C662.5,423.9,657.6,421.3,657.6,421.3z"/>
			<path class="st2" d="M658.2,429.9c0,0,6.7,1.5,9.9,1c0,0,3.4,0.7-0.9,1.3C662.9,432.8,658.2,429.9,658.2,429.9z"/>
			<path class="st2" d="M658,427.5c0,0,6.7,1.8,9.9,1.6c0,0,3.3,0.9-1,1.3C662.6,430.7,658,427.5,658,427.5z"/>
			<path class="st2" d="M657.3,423.5c0,0,6.9,0.1,10-0.9c0,0,3.4,0.1-0.6,1.5C662.5,425.5,657.3,423.5,657.3,423.5z"/>
			<path class="st2" d="M657.5,425.4c0,0,6.9,0.4,10-0.5c0,0,3.4,0.2-0.7,1.4C662.7,427.6,657.5,425.4,657.5,425.4z"/>
			<path class="st2" d="M659.3,433.2c0,0,6.9-0.2,9.9-1.5c0,0,3.4-0.1-0.6,1.5C664.6,434.9,659.3,433.2,659.3,433.2z"/>
			<path class="st2" d="M659.5,435.5c0,0,6.9-0.2,9.9-1.5c0,0,3.4-0.1-0.6,1.5C664.8,437.2,659.5,435.5,659.5,435.5z"/>
			<path class="st2" d="M659.5,437.2c0,0,6.9,0.3,10-0.6c0,0,3.4,0.2-0.7,1.5C664.7,439.3,659.5,437.2,659.5,437.2z"/>
			<path class="st2" d="M659.1,438.7c0,0,6.9,0.3,10-0.6c0,0,3.4,0.2-0.7,1.5C664.3,440.8,659.1,438.7,659.1,438.7z"/>
			<path class="st2" d="M659.1,440.9c0,0,6.9,0.3,10-0.6c0,0,3.4,0.2-0.7,1.5C664.3,443,659.1,440.9,659.1,440.9z"/>
			<path class="st2" d="M660.9,445.6c0,0,6.9,0.1,10-0.9c0,0,3.4,0.1-0.6,1.5C666.3,447.6,660.9,445.6,660.9,445.6z"/>
			<path class="st2" d="M660.2,443.1c0,0,6.9,0.5,10-0.4c0,0,3.4,0.2-0.7,1.4C665.4,445.4,660.2,443.1,660.2,443.1z"/>
			<path class="st2" d="M660.4,447.5c0,0,6.9,0.8,10,0c0,0,3.4,0.4-0.8,1.4S660.4,447.5,660.4,447.5z"/>
			<path class="st2" d="M660.8,449.9c0,0,6.9,0.6,10-0.2c0,0,3.4,0.3-0.7,1.4C665.9,452.2,660.8,449.9,660.8,449.9z"/>
			<path class="st2" d="M661.1,451.6c0,0,6.8,1.1,10,0.5c0,0,3.4,0.5-0.8,1.4C666,454.3,661.1,451.6,661.1,451.6z"/>
			<path class="st2" d="M661.5,460.3c0,0,6.7,1.6,9.9,1.2c0,0,3.4,0.8-0.9,1.3C666.3,463.3,661.5,460.3,661.5,460.3z"/>
			<path class="st2" d="M661.4,457.8c0,0,6.6,1.9,9.9,1.7c0,0,3.3,1-1,1.3C666,461.1,661.4,457.8,661.4,457.8z"/>
			<path class="st2" d="M660.8,453.9c0,0,6.9,0.3,10-0.7c0,0,3.4,0.1-0.7,1.5C666,455.9,660.8,453.9,660.8,453.9z"/>
			<path class="st2" d="M661,455.8c0,0,6.9,0.6,10-0.3c0,0,3.4,0.3-0.7,1.4C666.1,458,661,455.8,661,455.8z"/>
			<path class="st2" d="M663.9,466.6c0,0,6.8-1.1,9.6-2.7c0,0,3.4-0.6-0.4,1.6C669.4,467.6,663.9,466.6,663.9,466.6z"/>
			<path class="st2" d="M662.8,464.4c0,0,6.9-0.7,9.8-2.2c0,0,3.4-0.4-0.4,1.5C668.4,465.6,662.8,464.4,662.8,464.4z"/>
			<path class="st2" d="M663.8,468.6c0,0,6.9-0.5,9.8-1.8c0,0,3.4-0.2-0.5,1.5C669.2,470,663.8,468.6,663.8,468.6z"/>
			<path class="st2" d="M664.6,471c0,0,6.9-0.6,9.8-2c0,0,3.4-0.3-0.5,1.5C670.1,472.3,664.6,471,664.6,471z"/>
			<path class="st2" d="M665.2,472.7c0,0,6.9-0.2,9.9-1.3c0,0,3.4-0.1-0.6,1.5C670.5,474.4,665.2,472.7,665.2,472.7z"/>
			<path class="st2" d="M667.2,481.1c0,0,6.9,0.4,10-0.6c0,0,3.4,0.2-0.7,1.4C672.4,483.2,667.2,481.1,667.2,481.1z"/>
			<path class="st2" d="M666.7,478.7c0,0,6.9,0.7,10-0.1c0,0,3.4,0.4-0.8,1.4C671.7,481.1,666.7,478.7,666.7,478.7z"/>
			<path class="st2" d="M665.3,474.9c0,0,6.8-1,9.7-2.5c0,0,3.4-0.5-0.4,1.6C670.8,476,665.3,474.9,665.3,474.9z"/>
			<path class="st2" d="M665.8,476.7c0,0,6.9-0.7,9.8-2.1c0,0,3.4-0.3-0.5,1.5C671.2,477.9,665.8,476.7,665.8,476.7z"/>
			<path class="st2" d="M667.5,483.7c0,0,6.3-2.7,8.7-4.9c0,0,3.2-1.4,0,1.6C673.1,483.3,667.5,483.7,667.5,483.7z"/>
			<path class="st2" d="M668.6,485.7c0,0,6.3-2.7,8.7-4.9c0,0,3.2-1.4,0,1.6C674.2,485.3,668.6,485.7,668.6,485.7z"/>
			<path class="st2" d="M669.2,487.3c0,0,6.5-2.2,9.1-4.2c0,0,3.3-1.1-0.1,1.6C674.8,487.4,669.2,487.3,669.2,487.3z"/>
			<path class="st2" d="M670.8,494.9c0,0,6.9-0.3,9.9-1.6c0,0,3.4-0.2-0.5,1.5C676.2,496.5,670.8,494.9,670.8,494.9z"/>
			<path class="st2" d="M670,492.6c0,0,6.9,0,9.9-1c0,0,3.4,0-0.6,1.5S670,492.6,670,492.6z"/>
			<path class="st2" d="M669.3,488.8c0,0,6.5-2.2,9.1-4.2c0,0,3.3-1.1-0.1,1.6S669.3,488.8,669.3,488.8z"/>
			<path class="st2" d="M670.1,490.9c0,0,6.5-2.2,9.1-4.2c0,0,3.3-1.1-0.1,1.6C675.7,490.9,670.1,490.9,670.1,490.9z"/>
			<path class="st2" d="M670.5,496.9c0,0,6.9,0.3,10-0.7c0,0,3.4,0.2-0.7,1.5C675.7,499.1,670.5,496.9,670.5,496.9z"/>
			<path class="st2" d="M671.1,499.3c0,0,6.9,0.2,10-0.9c0,0,3.4,0.1-0.6,1.5C676.3,501.3,671.1,499.3,671.1,499.3z"/>
			<path class="st2" d="M671.4,501.1c0,0,6.9,0.6,10-0.2c0,0,3.4,0.3-0.7,1.4C676.5,503.4,671.4,501.1,671.4,501.1z"/>
			<path class="st2" d="M673.5,510.1c0,0,6.9,0,9.9-1.1c0,0,3.4,0-0.6,1.5C678.8,512,673.5,510.1,673.5,510.1z"/>
			<path class="st2" d="M672.8,507.8c0,0,6.9,0.4,10-0.6c0,0,3.4,0.2-0.7,1.4C678.1,509.8,672.8,507.8,672.8,507.8z"/>
			<path class="st2" d="M671.3,503.3c0,0,6.9-0.2,9.9-1.4c0,0,3.4-0.1-0.6,1.5C676.6,505,671.3,503.3,671.3,503.3z"/>
			<path class="st2" d="M671.6,505.2c0,0,6.9,0.1,10-1c0,0,3.4,0.1-0.6,1.5C676.8,507.1,671.6,505.2,671.6,505.2z"/>
			<path class="st2" d="M675.2,513.1c0,0,6.7-1.7,9.4-3.5c0,0,3.3-0.8-0.2,1.6S675.2,513.1,675.2,513.1z"/>
			<path class="st2" d="M675.9,515.3c0,0,6.7-1.7,9.4-3.5c0,0,3.3-0.8-0.2,1.6C681.6,515.8,675.9,515.3,675.9,515.3z"/>
			<path class="st2" d="M676.2,517c0,0,6.8-1.1,9.6-2.7c0,0,3.4-0.6-0.4,1.6C681.9,517.9,676.2,517,676.2,517z"/>
			<path class="st2" d="M676.2,518.5c0,0,6.8-1.1,9.6-2.7c0,0,3.4-0.6-0.4,1.6C681.8,519.5,676.2,518.5,676.2,518.5z"/>
			<path class="st2" d="M676.6,520.7c0,0,6.8-1.1,9.6-2.7c0,0,3.4-0.6-0.4,1.6C682.2,521.6,676.6,520.7,676.6,520.7z"/>
			<path class="st2" d="M679.4,524.9c0,0,6.8-1.3,9.5-3c0,0,3.4-0.7-0.3,1.6C685,525.7,679.4,524.9,679.4,524.9z"/>
			<path class="st2" d="M678.3,522.6c0,0,6.8-1,9.7-2.5c0,0,3.4-0.5-0.4,1.6C683.8,523.8,678.3,522.6,678.3,522.6z"/>
			<path class="st2" d="M679.4,526.9c0,0,6.9-0.7,9.8-2.1c0,0,3.4-0.4-0.5,1.5C684.8,528.2,679.4,526.9,679.4,526.9z"/>
			<path class="st2" d="M680.3,529.1c0,0,6.8-0.9,9.7-2.3c0,0,3.4-0.4-0.4,1.5C685.8,530.3,680.3,529.1,680.3,529.1z"/>
			<path class="st2" d="M680.9,530.8c0,0,6.9-0.4,9.9-1.6c0,0,3.4-0.2-0.5,1.5C686.3,532.3,680.9,530.8,680.9,530.8z"/>
			<path class="st2" d="M682.6,536.7c0,0,6.9,0.5,10-0.4c0,0,3.4,0.3-0.7,1.4C687.8,538.8,682.6,536.7,682.6,536.7z"/>
			<path class="st2" d="M681.1,533c0,0,6.8-1.2,9.6-2.8c0,0,3.4-0.6-0.3,1.6C686.6,533.9,681.1,533,681.1,533z"/>
			<path class="st2" d="M681.7,534.8c0,0,6.8-0.9,9.7-2.4c0,0,3.4-0.5-0.4,1.5C687.1,536,681.7,534.8,681.7,534.8z"/>
			<path class="st2" d="M683.9,542c0,0,6.9-0.7,9.8-2.1c0,0,3.4-0.4-0.5,1.5C689.3,543.2,683.9,542,683.9,542z"/>
			<path class="st2" d="M683,539.7c0,0,6.9-0.4,9.9-1.6c0,0,3.4-0.2-0.5,1.5C688.3,541.3,683,539.7,683,539.7z"/>
			<path class="st2" d="M685.9,544.7c0,0,6.5-2.4,8.9-4.5c0,0,3.2-1.2-0.1,1.6C691.5,544.6,685.9,544.7,685.9,544.7z"/>
			<path class="st2" d="M686.9,546.9c0,0,6.5-2.4,8.9-4.5c0,0,3.2-1.2-0.1,1.6C692.5,546.8,686.9,546.9,686.9,546.9z"/>
			<path class="st2" d="M687.4,548.5c0,0,6.6-1.9,9.3-3.8c0,0,3.3-0.9-0.2,1.6S687.4,548.5,687.4,548.5z"/>
			<path class="st2" d="M687.5,550c0,0,6.6-1.9,9.3-3.8c0,0,3.3-0.9-0.2,1.6C693.1,550.4,687.5,550,687.5,550z"/>
			<path class="st2" d="M688.2,552.2c0,0,6.6-1.9,9.3-3.8c0,0,3.3-0.9-0.2,1.6S688.2,552.2,688.2,552.2z"/>
			<path class="st2" d="M690.3,556.3c0,0,6.6-2,9.2-4c0,0,3.3-1-0.1,1.6C695.9,556.5,690.3,556.3,690.3,556.3z"/>
			<path class="st2" d="M688.9,554.3c0,0,6.7-1.7,9.4-3.5c0,0,3.3-0.8-0.2,1.6C694.5,554.8,688.9,554.3,688.9,554.3z"/>
			<path class="st2" d="M690.5,558.3c0,0,6.7-1.4,9.5-3.2c0,0,3.4-0.7-0.3,1.6C696,559,690.5,558.3,690.5,558.3z"/>
			<path class="st2" d="M691.6,560.4c0,0,6.7-1.6,9.4-3.4c0,0,3.4-0.8-0.2,1.6C697.2,561,691.6,560.4,691.6,560.4z"/>
			<path class="st2" d="M692.4,562c0,0,6.8-1.1,9.6-2.7c0,0,3.4-0.6-0.4,1.6C697.8,563.1,692.4,562,692.4,562z"/>
			<path class="st2" d="M694.7,567.8c0,0,6.9-0.2,9.9-1.5c0,0,3.4-0.1-0.6,1.5C700,569.4,694.7,567.8,694.7,567.8z"/>
			<path class="st2" d="M692.8,564.2c0,0,6.6-1.9,9.2-3.8c0,0,3.3-1-0.2,1.6C698.4,564.5,692.8,564.2,692.8,564.2z"/>
			<path class="st2" d="M693.6,566c0,0,6.7-1.6,9.4-3.4c0,0,3.4-0.8-0.2,1.6C699.2,566.5,693.6,566,693.6,566z"/>
			<path class="st2" d="M696.7,572.7c0,0,6.6-2,9.2-4c0,0,3.3-1-0.1,1.6C702.3,572.9,696.7,572.7,696.7,572.7z"/>
			<path class="st2" d="M695.4,570.7c0,0,6.7-1.7,9.4-3.5c0,0,3.3-0.8-0.2,1.6C701,571.2,695.4,570.7,695.4,570.7z"/>
			<path class="st2" d="M696.9,574.7c0,0,6.7-1.4,9.5-3.2c0,0,3.4-0.7-0.3,1.6C702.5,575.4,696.9,574.7,696.9,574.7z"/>
			<path class="st2" d="M698.1,576.8c0,0,6.7-1.6,9.4-3.4c0,0,3.4-0.8-0.2,1.6C703.6,577.5,698.1,576.8,698.1,576.8z"/>
			<path class="st2" d="M699.6,578.9c0,0,6.6-1.8,9.3-3.7c0,0,3.3-0.9-0.2,1.6C705.3,579.3,699.6,578.9,699.6,578.9z"/>
			<path class="st2" d="M702.5,584.4c0,0,6.8-1,9.7-2.5c0,0,3.4-0.5-0.4,1.6C708.1,585.5,702.5,584.4,702.5,584.4z"/>
			<path class="st2" d="M700.3,581c0,0,6.4-2.6,8.8-4.8c0,0,3.2-1.3,0,1.6C706,580.7,700.3,581,700.3,581z"/>
			<path class="st2" d="M701.2,582.7c0,0,6.5-2.3,9-4.4c0,0,3.2-1.2-0.1,1.6C706.9,582.6,701.2,582.7,701.2,582.7z"/>
			<path class="st2" d="M704.7,588.4c0,0,6.6-2,9.2-4c0,0,3.3-1-0.1,1.6C710.3,588.6,704.7,588.4,704.7,588.4z"/>
			<path class="st2" d="M703.3,586.3c0,0,6.7-1.7,9.4-3.5c0,0,3.3-0.8-0.2,1.6C709,586.8,703.3,586.3,703.3,586.3z"/>
			<path class="st2" d="M704.9,590.3c0,0,6.7-1.4,9.5-3.2c0,0,3.4-0.7-0.3,1.6C710.5,591.1,704.9,590.3,704.9,590.3z"/>
			<path class="st2" d="M706.1,592.5c0,0,6.7-1.6,9.4-3.4c0,0,3.4-0.8-0.2,1.6C711.6,593.1,706.1,592.5,706.1,592.5z"/>
			<path class="st2" d="M706.9,594.1c0,0,6.8-1.1,9.6-2.7c0,0,3.4-0.6-0.4,1.6C712.4,595,706.9,594.1,706.9,594.1z"/>
			<path class="st2" d="M708.1,594.4c0,0,6.9,0.8,10,0c0,0,3.4,0.4-0.8,1.4C713.1,596.8,708.1,594.4,708.1,594.4z"/>
			<path class="st2" d="M450.3,462.6c0,0-6.8-1.2-9.6-2.8c0,0-3.4-0.6,0.3,1.6C444.7,463.6,450.3,462.6,450.3,462.6z"/>
			<path class="st2" d="M449.7,464.8c0,0-6.8-1.2-9.6-2.8c0,0-3.4-0.6,0.3,1.6C444.2,465.8,449.7,464.8,449.7,464.8z"/>
			<path class="st2" d="M449.5,466.5c0,0-6.9-0.6-9.8-2c0,0-3.4-0.3,0.5,1.5S449.5,466.5,449.5,466.5z"/>
			<path class="st2" d="M447.7,474.1c0,0-6.9-0.4-9.9-1.6c0,0-3.4-0.2,0.5,1.5C442.3,475.7,447.7,474.1,447.7,474.1z"/>
			<path class="st2" d="M448.5,471.8c0,0-6.9,0-9.9-1.1c0,0-3.4,0,0.6,1.5S448.5,471.8,448.5,471.8z"/>
			<path class="st2" d="M449.7,468c0,0-6.9-0.6-9.8-2c0,0-3.4-0.3,0.5,1.5C444.3,469.3,449.7,468,449.7,468z"/>
			<path class="st2" d="M449.4,470.2c0,0-6.9-0.6-9.8-2c0,0-3.4-0.3,0.5,1.5C444,471.6,449.4,470.2,449.4,470.2z"/>
			<path class="st2" d="M448,476.1c0,0-6.9,0.2-10-0.8c0,0-3.4,0.1,0.7,1.5C442.8,478.2,448,476.1,448,476.1z"/>
			<path class="st2" d="M447.4,478.4c0,0-6.9,0.1-10-1c0,0-3.4,0,0.6,1.5C442.1,480.4,447.4,478.4,447.4,478.4z"/>
			<path class="st2" d="M447,480.2c0,0-6.9,0.6-10-0.3c0,0-3.4,0.3,0.7,1.4C441.9,482.5,447,480.2,447,480.2z"/>
			<path class="st2" d="M446.2,487.6c0,0-6.5,2.4-9.7,2.4c0,0-3.2,1.2,1.1,1.2C441.8,491.2,446.2,487.6,446.2,487.6z"/>
			<path class="st2" d="M446.2,486.3c0,0-6.7,1.4-10,1c0,0-3.4,0.7,0.9,1.3C441.4,489.2,446.2,486.3,446.2,486.3z"/>
			<path class="st2" d="M447.2,482.4c0,0-6.9-0.3-9.9-1.5c0,0-3.4-0.1,0.6,1.5C441.8,484.1,447.2,482.4,447.2,482.4z"/>
			<path class="st2" d="M446.8,484.3c0,0-6.9,0-9.9-1c0,0-3.4,0,0.6,1.5C441.6,486.2,446.8,484.3,446.8,484.3z"/>
			<path class="st2" d="M445.5,491.1c0,0-6.9,0.7-10-0.1c0,0-3.4,0.3,0.7,1.4C440.5,493.4,445.5,491.1,445.5,491.1z"/>
			<path class="st2" d="M445.6,493.4c0,0-6.9,0.7-10-0.1c0,0-3.4,0.3,0.7,1.4C440.6,495.7,445.6,493.4,445.6,493.4z"/>
			<path class="st2" d="M445.9,495c0,0-6.8,1.2-10,0.7c0,0-3.4,0.6,0.9,1.4C441,497.9,445.9,495,445.9,495z"/>
			<path class="st2" d="M446.5,496.5c0,0-6.8,1.2-10,0.7c0,0-3.4,0.6,0.9,1.4C441.6,499.3,446.5,496.5,446.5,496.5z"/>
			<path class="st2" d="M446.7,498.7c0,0-6.8,1.2-10,0.7c0,0-3.4,0.6,0.9,1.4C441.9,501.5,446.7,498.7,446.7,498.7z"/>
			<path class="st2" d="M445.6,503.5c0,0-6.8,1.1-10,0.4c0,0-3.4,0.5,0.8,1.4C440.7,506.1,445.6,503.5,445.6,503.5z"/>
			<path class="st2" d="M445.9,501.1c0,0-6.8,1.4-10,0.9c0,0-3.4,0.7,0.9,1.3C441.1,503.9,445.9,501.1,445.9,501.1z"/>
			<path class="st2" d="M446.3,505.4c0,0-6.7,1.7-9.9,1.3c0,0-3.3,0.8,0.9,1.3C441.6,508.4,446.3,505.4,446.3,505.4z"/>
			<path class="st2" d="M446.2,507.8c0,0-6.7,1.5-9.9,1.1c0,0-3.4,0.8,0.9,1.3C441.5,510.7,446.2,507.8,446.2,507.8z"/>
			<path class="st2" d="M446.2,509.5c0,0-6.6,2-9.8,1.8c0,0-3.3,1,1,1.2C441.7,512.8,446.2,509.5,446.2,509.5z"/>
			<path class="st2" d="M446.8,518.2c0,0-6.4,2.5-9.7,2.5c0,0-3.2,1.2,1.1,1.2C442.6,521.8,446.8,518.2,446.8,518.2z"/>
			<path class="st2" d="M446.7,515.7c0,0-6.3,2.8-9.5,3c0,0-3.2,1.4,1.2,1.1C442.6,519.6,446.7,515.7,446.7,515.7z"/>
			<path class="st2" d="M446.8,511.7c0,0-6.8,1.2-10,0.6c0,0-3.4,0.6,0.9,1.4C441.9,514.4,446.8,511.7,446.8,511.7z"/>
			<path class="st2" d="M446.8,513.6c0,0-6.7,1.5-10,1c0,0-3.4,0.7,0.9,1.3S446.8,513.6,446.8,513.6z"/>
			<path class="st2" d="M446.9,523c0,0-6.6,2.1-9.8,2c0,0-3.3,1.1,1,1.2C442.4,526.4,446.9,523,446.9,523z"/>
			<path class="st2" d="M446.1,522.5c0,0-6.9,0.2-10-0.9c0,0-3.4,0.1,0.6,1.5C440.9,524.5,446.1,522.5,446.1,522.5z"/>
			<path class="st2" d="M447.9,524.8c0,0-6.4,2.7-9.6,2.9c0,0-3.2,1.3,1.1,1.1C443.8,528.6,447.9,524.8,447.9,524.8z"/>
			<path class="st2" d="M448.2,527.2c0,0-6.4,2.5-9.6,2.6c0,0-3.2,1.3,1.1,1.2C444,530.9,448.2,527.2,448.2,527.2z"/>
			<path class="st2" d="M448.5,529c0,0-6.2,3-9.4,3.3c0,0-3.1,1.5,1.2,1.1C444.5,532.9,448.5,529,448.5,529z"/>
			<path class="st2" d="M449.8,536.7c0,0-6.2,3-9.4,3.4c0,0-3.1,1.5,1.2,1.1C445.9,540.8,449.8,536.7,449.8,536.7z"/>
			<path class="st2" d="M449.4,534.3c0,0-6,3.4-9.2,3.9c0,0-3,1.7,1.3,1C445.7,538.5,449.4,534.3,449.4,534.3z"/>
			<path class="st2" d="M449.4,531c0,0-6.5,2.2-9.8,2.2c0,0-3.3,1.1,1.1,1.2C445.1,534.5,449.4,531,449.4,531z"/>
			<path class="st2" d="M449.7,532.9c0,0-6.4,2.5-9.7,2.6c0,0-3.2,1.3,1.1,1.2C445.5,536.6,449.7,532.9,449.7,532.9z"/>
			<path class="st2" d="M450.5,539.2c0,0-6.9,0-9.9-1.1c0,0-3.4,0,0.6,1.5C445.3,541.1,450.5,539.2,450.5,539.2z"/>
			<path class="st2" d="M450.4,541.5c0,0-6.9,0-9.9-1.1c0,0-3.4,0,0.6,1.5S450.4,541.5,450.4,541.5z"/>
			<path class="st2" d="M450.5,543.2c0,0-6.9,0.6-10-0.3c0,0-3.4,0.3,0.7,1.4C445.4,545.5,450.5,543.2,450.5,543.2z"/>
			<path class="st2" d="M451.6,549.9c0,0-6.5,2.4-9.7,2.5c0,0-3.2,1.2,1.1,1.2C447.3,553.6,451.6,549.9,451.6,549.9z"/>
			<path class="st2" d="M451.4,547.4c0,0-6.3,2.8-9.6,3c0,0-3.2,1.4,1.2,1.1C447.3,551.3,451.4,547.4,451.4,547.4z"/>
			<path class="st2" d="M450.9,544.7c0,0-6.9,0.6-10-0.3c0,0-3.4,0.3,0.7,1.4C445.8,547,450.9,544.7,450.9,544.7z"/>
			<path class="st2" d="M451,546.9c0,0-6.9,0.6-10-0.3c0,0-3.4,0.3,0.7,1.4C445.8,549.1,451,546.9,451,546.9z"/>
			<path class="st2" d="M452.7,551.6c0,0-6.2,3-9.4,3.3c0,0-3.1,1.5,1.2,1.1C448.7,555.6,452.7,551.6,452.7,551.6z"/>
			<path class="st2" d="M453.1,554c0,0-6.3,2.9-9.5,3.1c0,0-3.1,1.4,1.2,1.1C449,557.9,453.1,554,453.1,554z"/>
			<path class="st2" d="M453.4,555.8c0,0-6.1,3.3-9.3,3.8c0,0-3,1.6,1.2,1C449.5,560,453.4,555.8,453.4,555.8z"/>
			<path class="st2" d="M455.1,564.9c0,0-6.3,2.7-9.6,2.9c0,0-3.2,1.4,1.1,1.1C451,568.7,455.1,564.9,455.1,564.9z"/>
			<path class="st2" d="M454.8,562.5c0,0-6.2,3.1-9.4,3.4c0,0-3.1,1.5,1.2,1.1C450.9,566.5,454.8,562.5,454.8,562.5z"/>
			<path class="st2" d="M454.5,557.8c0,0-6.4,2.5-9.7,2.6c0,0-3.2,1.3,1.1,1.2C450.2,561.4,454.5,557.8,454.5,557.8z"/>
			<path class="st2" d="M454.9,559.6c0,0-6.3,2.8-9.5,3c0,0-3.1,1.4,1.2,1.1C450.8,563.5,454.9,559.6,454.9,559.6z"/>
			<path class="st2" d="M457.1,568.7c0,0-6.8,1.1-10,0.5c0,0-3.4,0.5,0.8,1.4C452.2,571.4,457.1,568.7,457.1,568.7z"/>
			<path class="st2" d="M457.3,571c0,0-6.8,1.1-10,0.5c0,0-3.4,0.5,0.8,1.4C452.3,573.8,457.3,571,457.3,571z"/>
			<path class="st2" d="M457.5,571.3c0,0-6.2,3-9.4,3.3c0,0-3.1,1.5,1.2,1.1C453.6,575.3,457.5,571.3,457.5,571.3z"/>
			<path class="st2" d="M458.4,572.5c0,0-6.2,3-9.4,3.3c0,0-3.1,1.5,1.2,1.1S458.4,572.5,458.4,572.5z"/>
			<path class="st2" d="M459.3,574.5c0,0-6.2,3-9.4,3.3c0,0-3.1,1.5,1.2,1.1C455.4,578.6,459.3,574.5,459.3,574.5z"/>
			<path class="st2" d="M459.4,579.5c0,0-6.3,2.8-9.5,3c0,0-3.2,1.4,1.2,1.1C455.4,583.4,459.4,579.5,459.4,579.5z"/>
			<path class="st2" d="M459.1,577c0,0-6.1,3.1-9.4,3.5c0,0-3.1,1.6,1.2,1C455.3,581.2,459.1,577,459.1,577z"/>
			<path class="st2" d="M460.6,581.1c0,0-6,3.4-9.2,3.9c0,0-3,1.7,1.3,1C456.9,585.3,460.6,581.1,460.6,581.1z"/>
			<path class="st2" d="M461.1,583.5c0,0-6.1,3.2-9.3,3.7c0,0-3,1.6,1.2,1S461.1,583.5,461.1,583.5z"/>
			<path class="st2" d="M461.6,585.2c0,0-5.9,3.7-9,4.3c0,0-2.9,1.8,1.3,0.9C458.1,589.6,461.6,585.2,461.6,585.2z"/>
			<path class="st2" d="M462.3,590c0,0-5.5,4.1-8.7,5c0,0-2.8,2.1,1.4,0.8C459.1,594.6,462.3,590,462.3,590z"/>
			<path class="st2" d="M462.8,587.1c0,0-6.3,2.9-9.5,3.2c0,0-3.1,1.5,1.2,1.1C458.8,591,462.8,587.1,462.8,587.1z"/>
			<path class="st2" d="M463.3,589c0,0-6.1,3.2-9.3,3.6c0,0-3.1,1.6,1.2,1C459.5,593,463.3,589,463.3,589z"/>
			<path class="st2" d="M464,595.1c0,0-6.2,3.1-9.4,3.4c0,0-3.1,1.5,1.2,1.1C460,599.2,464,595.1,464,595.1z"/>
			<path class="st2" d="M463.5,592.7c0,0-6,3.4-9.2,3.9c0,0-3,1.7,1.3,1C459.8,596.9,463.5,592.7,463.5,592.7z"/>
			<path class="st2" d="M463.8,598.5c0,0-6.7,1.4-10,1c0,0-3.4,0.7,0.9,1.3C458.9,601.4,463.8,598.5,463.8,598.5z"/>
			<path class="st2" d="M464.1,600.8c0,0-6.7,1.4-10,1c0,0-3.4,0.7,0.9,1.3C459.3,603.7,464.1,600.8,464.1,600.8z"/>
			<path class="st2" d="M464.6,602.5c0,0-6.6,2-9.8,1.8c0,0-3.3,1,1,1.2C460,605.8,464.6,602.5,464.6,602.5z"/>
			<path class="st2" d="M465.3,603.8c0,0-6.6,2-9.8,1.8c0,0-3.3,1,1,1.2C460.7,607.2,465.3,603.8,465.3,603.8z"/>
			<path class="st2" d="M465.8,606c0,0-6.6,2-9.8,1.8c0,0-3.3,1,1,1.2C461.2,609.2,465.8,606,465.8,606z"/>
			<path class="st2" d="M466.3,610.6c0,0-6.7,1.8-9.9,1.5c0,0-3.3,0.9,1,1.3C461.6,613.8,466.3,610.6,466.3,610.6z"/>
			<path class="st2" d="M466.3,608.2c0,0-6.6,2.1-9.8,2c0,0-3.3,1.1,1,1.2C461.7,611.5,466.3,608.2,466.3,608.2z"/>
			<path class="st2" d="M467.2,612.4c0,0-6.5,2.4-9.7,2.4c0,0-3.2,1.2,1.1,1.2C462.8,616,467.2,612.4,467.2,612.4z"/>
			<path class="st2" d="M467.6,614.9c0,0-6.4,2.6-9.6,2.7c0,0-3.2,1.3,1.1,1.2C463.3,618.7,467.6,614.9,467.6,614.9z"/>
			<path class="st2" d="M467.9,616.6c0,0-6.2,3-9.4,3.3c0,0-3.1,1.5,1.2,1.1C463.9,620.6,467.9,616.6,467.9,616.6z"/>
			<path class="st2" d="M469.3,622.7c0,0-5.8,3.8-8.9,4.5c0,0-2.9,1.9,1.3,0.9C465.9,627.1,469.3,622.7,469.3,622.7z"/>
			<path class="st2" d="M468.8,618.7c0,0-6.5,2.2-9.8,2.2c0,0-3.3,1.1,1.1,1.2C464.5,622.2,468.8,618.7,468.8,618.7z"/>
			<path class="st2" d="M469.1,620.6c0,0-6.4,2.5-9.7,2.6c0,0-3.2,1.3,1.1,1.2C464.8,624.3,469.1,620.6,469.1,620.6z"/>
			<path class="st2" d="M472.5,629.2c0,0-6.9,0.7-10-0.1c0,0-3.4,0.4,0.8,1.4C467.4,631.7,472.5,629.2,472.5,629.2z"/>
			<path class="st2" d="M470.4,625.4c0,0-6.4,2.5-9.7,2.5c0,0-3.2,1.2,1.1,1.2C466.1,629.1,470.4,625.4,470.4,625.4z"/>
			<path class="st2" d="M473.1,631.2c0,0-6.8,1.3-10,0.8c0,0-3.4,0.7,0.9,1.3S473.1,631.2,473.1,631.2z"/>
			<path class="st2" d="M472.9,633.6c0,0-6.8,1.2-10,0.6c0,0-3.4,0.6,0.9,1.4C468,636.3,472.9,633.6,472.9,633.6z"/>
			<path class="st2" d="M472.7,633.7c0,0-5.5,4.1-8.6,5.1c0,0-2.8,2.1,1.4,0.8S472.7,633.7,472.7,633.7z"/>
			<path class="st2" d="M475.2,639.4c0,0-5,4.8-7.9,6.1c0,0-2.5,2.4,1.5,0.6C472.7,644.4,475.2,639.4,475.2,639.4z"/>
			<path class="st2" d="M474,635.6c0,0-6,3.4-9.2,4c0,0-3,1.7,1.3,1C470.4,639.9,474,635.6,474,635.6z"/>
			<path class="st2" d="M474.2,636.5c0,0-5,4.7-8,6c0,0-2.5,2.4,1.5,0.7S474.2,636.5,474.2,636.5z"/>
			<path class="st2" d="M477,643.8c0,0-5.4,4.3-8.5,5.3c0,0-2.7,2.1,1.4,0.8C474,648.5,477,643.8,477,643.8z"/>
			<path class="st2" d="M476.3,641.2c0,0-5.4,4.3-8.5,5.3c0,0-2.7,2.1,1.4,0.8C473.3,645.9,476.3,641.2,476.3,641.2z"/>
			<path class="st2" d="M478.6,645.1c0,0-5,4.7-8,6c0,0-2.5,2.4,1.5,0.7C476,650,478.6,645.1,478.6,645.1z"/>
			<path class="st2" d="M479.7,647.2c0,0-5.1,4.6-8.1,5.9c0,0-2.6,2.3,1.4,0.7C477,652.1,479.7,647.2,479.7,647.2z"/>
			<path class="st2" d="M476.9,647.7c0,0-3.7,5.8-6.3,7.8c0,0-1.8,2.9,1.6,0.3C475.7,653.2,476.9,647.7,476.9,647.7z"/>
			<path class="st2" d="M476.7,649c0,0-2,6.6-3.9,9.2c0,0-1,3.3,1.6-0.2C477,654.6,476.7,649,476.7,649z"/>
			
				<linearGradient id="SVGID_17_" gradientUnits="userSpaceOnUse" x1="444.9303" y1="294.45" x2="701.5" y2="294.45" gradientTransform="matrix(1 0 0 1 0 236)">
				<stop  offset="0" style="stop-color:#0F2A40"/>
				<stop  offset="1" style="stop-color:#2A3C42"/>
			</linearGradient>
			<path class="st45" d="M650.5,409.2c-4.7,2-9.1,3.7-12.5,4.6c0,0-76.4,29.1-87.1,30.3c0,0-57.9,19.6-101.2,20.9
				c-17.4,40.4,17.6,153.8,28.4,186.7c17.7-7,68.9-23.4,113.1-36c31.3-8.9,77.8-17.2,110.3-22.6c-39-68.3-48.9-158-50.9-183
				C650.6,409.8,650.6,409.5,650.5,409.2z"/>
			<path class="st2" d="M624.3,435.5c-3.7,1.6-7.1,2.9-9.7,3.6c0,0-59.5,22.7-68,23.6c0,0-45.2,15.3-78.9,16.3
				c-13.5,31.5,13.8,119.9,22.1,145.5c13.9-5.5,53.7-18.3,88.1-28.1c24.6-7,60.7-13.5,86-17.7c-30.4-53.1-38-123.1-39.6-142.5
				C624.3,435.9,624.3,435.7,624.3,435.5z"/>
			
				<linearGradient id="SVGID_18_" gradientUnits="userSpaceOnUse" x1="473.2293" y1="285.1662" x2="603.6337" y2="285.1662" gradientTransform="matrix(0.9997 -2.478013e-02 2.478013e-02 0.9997 3.4634 262.2926)">
				<stop  offset="0" style="stop-color:#0F2A40"/>
				<stop  offset="1" style="stop-color:#2A3C42"/>
			</linearGradient>
			<path class="st46" d="M612.7,517.1c6.5,22.8-16.8,48.9-52.1,58.3c-35.2,9.3-69.2-1.5-75.7-24.4s16.8-48.9,52.1-58.3
				C572.4,483.3,606.2,494.2,612.7,517.1z"/>
			
				<ellipse transform="matrix(0.9697 -0.2443 0.2443 0.9697 -113.7859 150.1741)" class="st2" cx="548.5" cy="533.8" rx="49.4" ry="31.5"/>
			
				<linearGradient id="SVGID_19_" gradientUnits="userSpaceOnUse" x1="496.4173" y1="285.1303" x2="580.0208" y2="285.1303" gradientTransform="matrix(0.9997 -2.478013e-02 2.478013e-02 0.9997 3.4634 262.2926)">
				<stop  offset="0" style="stop-color:#0F2A40"/>
				<stop  offset="1" style="stop-color:#2A3C42"/>
			</linearGradient>
			<path class="st47" d="M589.8,522.7c0.5-0.4,0.4-0.9-0.2-1.1h-0.1c-0.4-0.1-10.8-2.1-22.4,1.2c-0.3,0.1-0.5,0.2-0.8,0.2
				c1.5-2.7,2.1-5.4,1.8-8c-0.1-0.4-0.7-0.6-1.5-0.4h-0.1c-4.2,1.4-8.1,3.3-11.5,5.6c0-0.2-0.1-0.3-0.1-0.5
				c-1.8-6.5-11.5-9.3-11.9-9.4c-0.6-0.2-1.5,0.1-1.9,0.5l0,0c-0.3,0.3-7,7.9-5.2,14.5c0,0.2,0.1,0.3,0.1,0.5
				c-4-0.1-8.4,0.3-12.7,1.4c-0.7,0.2-1.2,0.7-1.2,1.1c0,0,0,0,0,0.1c1,2.3,2.9,4.3,5.6,5.8c-0.3,0.1-0.5,0.1-0.8,0.2
				c-11.4,3.3-19.3,10.6-19.6,10.9c-0.5,0.4-0.4,0.9,0.2,1.1h0.1c0.4,0.1,10.8,2.1,22.4-1.2c0.3-0.1,0.5-0.2,0.8-0.2
				c-1.5,2.7-2.1,5.4-1.8,8c0.1,0.4,0.7,0.6,1.5,0.4c0,0,0,0,0.1,0h0.1c4.2-1.4,8.1-3.3,11.5-5.6c0,0.2,0.1,0.3,0.1,0.5
				c1.8,6.5,11.5,9.3,11.9,9.4c0.6,0.2,1.4-0.1,1.9-0.5c0,0,0,0,0.1-0.1c0.3-0.3,7-7.9,5.2-14.5c0-0.2-0.1-0.3-0.1-0.5
				c4,0.1,8.4-0.3,12.7-1.4h0.1c0.7-0.2,1.2-0.7,1.1-1.1l0,0c-1-2.3-2.9-4.3-5.6-5.8c0.3-0.1,0.5-0.1,0.8-0.2
				C581.7,530.4,589.5,523,589.8,522.7L589.8,522.7z M586.7,523c-2.4,2-8.7,6.7-17,9.1c-4.3,1.3-8.8,2.2-13.1,2.6
				c0.6-0.8,0.8-1.7,0.8-2.4l15.2-4.4c0.7-0.2,1.2-0.7,1.1-1.1c-0.1-0.4-0.8-0.6-1.5-0.4l-15.2,4.4c-0.4-0.7-1.1-1.2-2-1.6
				c3.9-2,8.1-3.6,12.5-4.8C575.8,521.9,583.7,522.6,586.7,523L586.7,523z M549.6,537.6c-3.4,1-6.5,0.2-7.1-1.7
				c-0.5-1.9,1.8-4.3,5.1-5.3c3.4-1,6.5-0.2,7.1,1.7C555.3,534.2,553,536.6,549.6,537.6z M565.5,516.7c0.1,2.4-0.7,4.9-2.4,7.4
				c-2.7,0.9-5.4,2-7.9,3.2c0.3-1.7,0.4-3.4,0.2-5.1C558.3,520,561.7,518.1,565.5,516.7z M542.4,512.3c2.5,0.9,8.4,3.6,9.7,8.3
				c0.8,2.5,0.8,5.1,0.1,7.9c-1.2-0.1-2.5,0-3.8,0.2l-2.4-8.6c-0.1-0.4-0.8-0.6-1.5-0.4c-0.7,0.2-1.2,0.7-1.1,1.1l2.4,8.6
				c-1.3,0.5-2.4,1.1-3.4,1.8c-2-2-3.4-4.2-4-6.7C537.1,519.9,540.8,514.5,542.4,512.3z M525.2,528.4c4-0.8,7.9-1.1,11.5-0.8
				c0.6,1.5,1.6,2.9,2.8,4.2c-2.8,0.3-5.6,0.8-8.4,1.5C528.3,532.2,526.3,530.5,525.2,528.4L525.2,528.4z M510.4,545.1
				c2.4-2,8.7-6.7,17-9.1c4.3-1.3,8.8-2.2,13.1-2.6c-0.6,0.8-0.8,1.7-0.8,2.4l-15.2,4.4c-0.7,0.2-1.2,0.7-1.1,1.1
				c0.1,0.4,0.8,0.6,1.5,0.4l15.2-4.4c0.4,0.7,1.1,1.2,2,1.6c-3.9,2-8.1,3.6-12.5,4.8C521.4,546.2,513.5,545.5,510.4,545.1z
				 M531.6,551.5c-0.1-2.4,0.7-4.9,2.4-7.4c2.7-0.9,5.4-2,7.9-3.2c-0.3,1.7-0.4,3.4-0.2,5.1C538.9,548.1,535.4,550,531.6,551.5
				L531.6,551.5z M554.7,555.8c-2.5-0.9-8.4-3.6-9.7-8.3c-0.8-2.5-0.8-5.1-0.1-7.9c1.2,0.1,2.5,0,3.8-0.2l2.4,8.6
				c0.1,0.4,0.8,0.6,1.5,0.4c0.7-0.2,1.2-0.7,1.1-1.1l-2.4-8.6c1.3-0.5,2.4-1.1,3.4-1.8c2,2,3.4,4.2,4,6.7
				C560,548.2,556.4,553.7,554.7,555.8z M572.1,539.7c-4,0.8-7.9,1.1-11.5,0.8c-0.6-1.5-1.6-2.9-2.8-4.2c2.8-0.3,5.6-0.8,8.4-1.5
				C568.8,536,570.9,537.7,572.1,539.7L572.1,539.7z"/>
			<path class="st5" d="M596.4,464.1c0,0-3.1-2.8,0.8-2.7c0,0,4.5,1.3,11.9-5.6c0,0-1.7-3.8,1.5-6c0,0-1.2,5.1,4.1,5.4
				c0,0-0.7,3.3-4.9,1.7c0,0-2.8,3.7-7.2,4.8c0,0,7.1,0.9,9,2.5s1.5,7-3.5,6.4C608.1,470.8,607.2,471.1,596.4,464.1z"/>
			<path class="st5" d="M616.1,445.8c0,0-0.8-1-1.2-1.1c-1.7-0.7-5.2-0.7-4.1,7c0,0-0.1,2.8,3.8,3.4c3.8,0.7,5.6-5,5.9-5.9
				c0.3-0.9-1.9-1.7-2.1-0.2c0,0,1-4.2-1.4-4.1C616.9,444.8,616,445.2,616.1,445.8z"/>
			<path class="st5" d="M491.3,488.2c0,0,0.8-4.1-1.7-1.6c0,0-2.5,3.8-10.3,3c0,0-0.5-3.9-3.6-3.7c0,0,3,3.2-0.4,6.7
				c0,0,1.9,2.1,4-1.7c0,0,3.4,1.1,6.8-0.7c0,0-4.4,5.1-4.9,7.5c-0.5,2.5,2,6.4,5.1,2.8C486.3,500.5,487.1,500.3,491.3,488.2z"/>
			<path class="st5" d="M470.2,486c0,0,0.1-1.2,0.3-1.6c0.8-1.6,3.1-3.8,5.8,2.9c0,0,1.2,2.1-1,5s-5.9-0.5-6.5-1s0.5-2.5,1.3-1.4
				c0,0-2.5-2.6-0.8-4C469.3,485.8,470,485.5,470.2,486z"/>
			<path class="st5" d="M618.8,563.9c0,0-1.8,3.6,2.1,2.4c0,0,4-2.5,15,2c0,0,0.2,4.1,4.5,5.3c0,0-3.8-4.5,1.5-6.4
				c0,0-2.4-2.9-5.9-0.2c0,0-4.7-2.7-9.7-2.5c0,0,6.9-2.8,7.9-5s-1.9-7.2-6.8-5.1C627.4,554.4,626.4,554.3,618.8,563.9z"/>
			<path class="st5" d="M647.9,576c0,0-0.4,1.1-0.7,1.4c-1.4,1.1-4.9,2.2-7.7-5.6c0,0-1.4-2.7,2.1-4.4s8.2,3.3,9,4
				c0.7,0.8-1.1,2.1-2,0.8c0,0,3.1,3.7,0.6,4.3C649.3,576.7,648.2,576.6,647.9,576z"/>
			<path class="st5" d="M509,599.4c0,0,3.6,2,0,2.5c0,0-4.5-0.4-9.5,6.8c0,0,2.6,3.1,0.2,5.6c0,0-0.2-4.7-5.3-4.2c0,0-0.2-3,4.1-2.3
				c0,0,1.6-3.7,5.4-5.4c0,0-6.9,0.3-9.1-0.9s-3.3-6,1.6-6.2C496.5,595.3,497.2,594.9,509,599.4z"/>
			<path class="st5" d="M495.7,618.9c0,0,1,0.7,1.5,0.8c1.7,0.3,5-0.1,1.9-6.9c0,0-0.7-2.5-4.4-2.5c-3.7,0-3.9,5.4-3.9,6.2
				s2.2,1.2,2-0.1c0,0,0.2,3.9,2.4,3.4C495.2,619.8,495.9,619.4,495.7,618.9z"/>
			
				<linearGradient id="SVGID_20_" gradientUnits="userSpaceOnUse" x1="498.7672" y1="284.9858" x2="576.7079" y2="284.9858" gradientTransform="matrix(0.9997 -2.478013e-02 2.478013e-02 0.9997 3.4634 262.2926)">
				<stop  offset="0" style="stop-color:#0F2A40"/>
				<stop  offset="1" style="stop-color:#2A3C42"/>
			</linearGradient>
			<polygon class="st48" points="539.9,515.1 541.9,511.2 552.2,516.4 554.2,524 556.2,520 566.4,515.8 564.4,523.5 564.4,523.5 
				570.4,523.2 578.6,520.9 585.4,522.8 586.8,522.4 586.8,524.4 576.6,530.6 566.1,533.8 572.6,538.4 574.6,540.2 562.4,540.8 
				559,542.4 559,549.3 556.3,556.4 551.7,556.6 544.1,549.3 541.5,546.9 531.8,551.8 529.8,549.9 533.1,543 527.8,544.3 
				515.5,546.8 509.4,545.2 515.6,540.1 525.7,534.9 529.8,534.7 527.8,532.9 523.7,529.3 523.7,527.4 531.8,527 535.9,526.8 
				537.9,524.8 535.9,521 			"/>
			<path class="st2" d="M566.6,525.2"/>
			<path class="st2" d="M566.9,528.3c0.2-0.2,0.2-0.4-0.1-0.5l0,0c-0.2,0-5-1-10.3,0.6c-0.1,0-0.3,0.1-0.4,0.1
				c0.7-1.3,1-2.5,0.8-3.7c0-0.2-0.3-0.3-0.7-0.2c0,0,0,0-0.1,0c-2,0.7-3.8,1.5-5.3,2.6c0-0.1,0-0.1-0.1-0.2c-0.9-3-5.3-4.3-5.5-4.4
				c-0.3-0.1-0.7,0-0.9,0.2l0,0c-0.1,0.1-3.3,3.7-2.4,6.7c0,0.1,0,0.1,0.1,0.2c-1.9-0.1-3.9,0.2-5.9,0.6c-0.3,0.1-0.6,0.3-0.5,0.5
				l0,0c0.5,1.1,1.4,2,2.6,2.7c-0.1,0-0.3,0.1-0.4,0.1c-5.3,1.5-8.9,4.9-9.1,5.1c-0.2,0.2-0.2,0.4,0.1,0.5l0,0c0.2,0,5,1,10.3-0.6
				c0.1,0,0.3-0.1,0.4-0.1c-0.7,1.3-1,2.5-0.8,3.7c0,0.2,0.3,0.3,0.7,0.2l0,0l0,0c2-0.7,3.8-1.5,5.3-2.6c0,0.1,0,0.1,0.1,0.2
				c0.9,3,5.3,4.3,5.5,4.4c0.3,0.1,0.7,0,0.9-0.2l0,0c0.1-0.1,3.3-3.7,2.4-6.7c0-0.1,0-0.1-0.1-0.2c1.9,0.1,3.9-0.2,5.9-0.6l0,0
				c0.3-0.1,0.6-0.3,0.5-0.5l0,0c-0.5-1.1-1.4-2-2.6-2.7c0.1,0,0.3-0.1,0.4-0.1C563.2,531.8,566.8,528.5,566.9,528.3L566.9,528.3z
				 M565.5,528.4c-1.1,0.9-4,3.1-7.8,4.2c-2,0.6-4.1,1-6.1,1.2c0.3-0.4,0.4-0.8,0.4-1.1l7-2c0.3-0.1,0.6-0.3,0.5-0.5
				s-0.4-0.3-0.7-0.2l-7,2c-0.2-0.3-0.5-0.6-0.9-0.8c1.8-0.9,3.8-1.7,5.8-2.2C560.4,527.9,564.1,528.3,565.5,528.4L565.5,528.4z
				 M548.3,535.2c-1.6,0.5-3,0.1-3.3-0.8c-0.3-0.9,0.8-2,2.4-2.4c1.6-0.5,3-0.1,3.3,0.8C550.9,533.6,549.9,534.7,548.3,535.2z
				 M555.7,525.5c0,1.1-0.3,2.3-1.1,3.4c-1.3,0.4-2.5,0.9-3.7,1.5c0.2-0.8,0.2-1.6,0.1-2.3C552.3,527.1,553.9,526.2,555.7,525.5z
				 M545,523.4c1.2,0.4,3.9,1.7,4.5,3.8c0.4,1.1,0.4,2.4,0,3.7c-0.6,0-1.2,0-1.8,0.1l-1.1-4c-0.1-0.2-0.4-0.3-0.7-0.2
				s-0.6,0.3-0.5,0.5l1.1,4c-0.6,0.2-1.1,0.5-1.6,0.9c-0.9-0.9-1.6-2-1.9-3.1C542.5,527,544.3,524.5,545,523.4z M536.9,530.9
				c1.8-0.4,3.7-0.5,5.3-0.4c0.3,0.7,0.7,1.4,1.3,2c-1.3,0.2-2.6,0.4-3.9,0.7C538.4,532.7,537.4,531.9,536.9,530.9L536.9,530.9z
				 M530.1,538.7c1.1-0.9,4-3.1,7.8-4.2c2-0.6,4.1-1,6.1-1.2c-0.3,0.4-0.4,0.8-0.4,1.1l-7,2c-0.3,0.1-0.6,0.3-0.5,0.5
				s0.4,0.3,0.7,0.2l7-2c0.2,0.3,0.5,0.6,0.9,0.8c-1.8,0.9-3.8,1.7-5.8,2.2C535.2,539.2,531.5,538.9,530.1,538.7z M539.9,541.6
				c0-1.1,0.3-2.3,1.1-3.4c1.3-0.4,2.5-0.9,3.7-1.5c-0.2,0.8-0.2,1.6-0.1,2.3C543.3,540.1,541.7,540.9,539.9,541.6L539.9,541.6z
				 M550.7,543.6c-1.2-0.4-3.9-1.7-4.5-3.8c-0.4-1.1-0.4-2.4,0-3.7c0.6,0,1.2,0,1.8-0.1l1.1,4c0.1,0.2,0.4,0.3,0.7,0.2
				s0.6-0.3,0.5-0.5l-1.1-4c0.6-0.2,1.1-0.5,1.6-0.9c0.9,0.9,1.6,2,1.9,3.1C553.1,540.1,551.5,542.6,550.7,543.6z M558.7,536.2
				c-1.8,0.4-3.7,0.5-5.3,0.4c-0.3-0.7-0.7-1.4-1.3-2c1.3-0.2,2.6-0.4,3.9-0.7C557.2,534.4,558.2,535.2,558.7,536.2L558.7,536.2z"/>
			<polygon class="st2" points="543.8,524.8 544.8,522.9 549.5,525.4 550.5,528.9 551.4,527.1 556.1,525.1 555.2,528.7 555.2,528.7 
				558,528.5 561.8,527.5 564.9,528.4 565.5,528.2 565.5,529.1 560.8,531.9 556,533.4 558.9,535.6 559.9,536.4 554.2,536.7 
				552.7,537.4 552.7,540.6 551.4,543.9 549.3,544 545.8,540.6 544.6,539.5 540,541.8 539.1,540.9 540.6,537.7 538.1,538.3 
				532.5,539.5 529.6,538.7 532.5,536.3 537.2,533.9 539.1,533.8 538.1,533 536.2,531.3 536.2,530.4 540,530.3 541.9,530.2 
				542.8,529.2 541.9,527.5 			"/>
			<path class="st2" d="M554,532.1c0.1-0.1,0.1-0.1,0-0.2l0,0c-0.1,0-1.7-0.3-3.5,0.2h-0.1c0.2-0.4,0.3-0.9,0.3-1.3
				c0-0.1-0.1-0.1-0.2-0.1l0,0c-0.7,0.2-1.3,0.5-1.8,0.9c0,0,0,0,0-0.1c-0.3-1-1.8-1.5-1.9-1.5c-0.1,0-0.2,0-0.3,0.1l0,0
				c0,0.1-1.1,1.3-0.8,2.3c0,0,0,0,0,0.1c-0.6,0-1.3,0.1-2,0.2c-0.1,0-0.2,0.1-0.2,0.2l0,0c0.2,0.4,0.5,0.7,0.9,0.9h-0.1
				c-1.8,0.5-3.1,1.7-3.1,1.7c-0.1,0.1-0.1,0.1,0,0.2l0,0c0.1,0,1.7,0.3,3.5-0.2h0.1c-0.2,0.4-0.3,0.9-0.3,1.3
				c0,0.1,0.1,0.1,0.2,0.1l0,0l0,0c0.7-0.2,1.3-0.5,1.8-0.9c0,0,0,0,0,0.1c0.3,1,1.8,1.5,1.9,1.5c0.1,0,0.2,0,0.3-0.1l0,0
				c0-0.1,1.1-1.3,0.8-2.3c0,0,0,0,0-0.1c0.6,0,1.3-0.1,2-0.2l0,0c0.1,0,0.2-0.1,0.2-0.2l0,0c-0.2-0.4-0.5-0.7-0.9-0.9h0.1
				C552.7,533.3,554,532.1,554,532.1L554,532.1z M553.5,532.1c-0.4,0.3-1.4,1.1-2.7,1.5c-0.7,0.2-1.4,0.3-2.1,0.4
				c0.1-0.1,0.1-0.3,0.1-0.4l2.4-0.7c0.1,0,0.2-0.1,0.2-0.2s-0.1-0.1-0.2-0.1l-2.4,0.7c-0.1-0.1-0.2-0.2-0.3-0.3
				c0.6-0.3,1.3-0.6,2-0.8C551.8,532,553,532.1,553.5,532.1L553.5,532.1z M547.6,534.4c-0.5,0.2-1,0-1.1-0.3s0.3-0.7,0.8-0.8
				s1,0,1.1,0.3C548.5,533.9,548.2,534.3,547.6,534.4z M550.2,531.1c0,0.4-0.1,0.8-0.4,1.2c-0.4,0.1-0.9,0.3-1.3,0.5
				c0.1-0.3,0.1-0.5,0-0.8C549,531.7,549.6,531.4,550.2,531.1z M546.5,530.4c0.4,0.1,1.3,0.6,1.6,1.3c0.1,0.4,0.1,0.8,0,1.3
				c-0.2,0-0.4,0-0.6,0l-0.4-1.4c0-0.1-0.1-0.1-0.2-0.1s-0.2,0.1-0.2,0.2l0.4,1.4c-0.2,0.1-0.4,0.2-0.5,0.3
				c-0.3-0.3-0.5-0.7-0.6-1.1C545.7,531.6,546.2,530.8,546.5,530.4z M543.7,533c0.6-0.1,1.3-0.2,1.8-0.1c0.1,0.2,0.2,0.5,0.4,0.7
				c-0.4,0.1-0.9,0.1-1.3,0.2C544.3,533.6,543.8,533.3,543.7,533L543.7,533z M541.3,535.6c0.4-0.3,1.4-1.1,2.7-1.5
				c0.7-0.2,1.4-0.3,2.1-0.4c-0.1,0.1-0.1,0.3-0.1,0.4l-2.4,0.7c-0.1,0-0.2,0.1-0.2,0.2c0,0.1,0.1,0.1,0.2,0.1l2.4-0.7
				c0.1,0.1,0.2,0.2,0.3,0.3c-0.6,0.3-1.3,0.6-2,0.8C543.1,535.8,541.8,535.7,541.3,535.6z M544.8,536.6c0-0.4,0.1-0.8,0.4-1.2
				c0.4-0.1,0.9-0.3,1.3-0.5c-0.1,0.3-0.1,0.5,0,0.8C545.9,536.1,545.4,536.4,544.8,536.6L544.8,536.6z M548.4,537.3
				c-0.4-0.1-1.3-0.6-1.6-1.3c-0.1-0.4-0.1-0.8,0-1.3c0.2,0,0.4,0,0.6,0l0.4,1.4c0,0.1,0.1,0.1,0.2,0.1s0.2-0.1,0.2-0.2l-0.4-1.4
				c0.2-0.1,0.4-0.2,0.5-0.3c0.3,0.3,0.5,0.7,0.6,1.1C549.3,536.1,548.7,537,548.4,537.3z M551.2,534.8c-0.6,0.1-1.3,0.2-1.8,0.1
				c-0.1-0.2-0.2-0.5-0.4-0.7c0.4-0.1,0.9-0.1,1.3-0.2C550.7,534.2,551,534.5,551.2,534.8L551.2,534.8z"/>
			<polygon class="st2" points="546.1,530.9 546.4,530.3 548,531.1 548.4,532.3 548.7,531.7 550.3,531 550,532.2 550,532.2 
				550.9,532.2 552.2,531.8 553.3,532.1 553.5,532 553.5,532.3 551.9,533.3 550.3,533.8 551.3,534.6 551.6,534.9 549.7,534.9 
				549.1,535.2 549.1,536.3 548.7,537.4 548,537.5 546.8,536.3 546.4,535.9 544.8,536.7 544.5,536.4 545,535.3 544.2,535.5 
				542.1,535.9 541.2,535.6 542.2,534.8 543.7,534 544.5,534 544.2,533.7 543.4,533.1 543.4,532.8 544.8,532.8 545.5,532.7 
				545.8,532.4 545.5,531.8 			"/>
		</g>
		<path class="st2" d="M702.3,383.6c0,0-29.6,54.3,24.2,160.5c11.5,22.8,12.4,22.3,12.4,22.3s-10,1-39.1,4c0,0,18.1-8,29.1-9
			c0,0-37.1-65.2-40.2-123.5C688.8,437.9,685.8,409.8,702.3,383.6z"/>
	</g>
</g>
</svg>
